<mxfile host="Electron" agent="Mozilla/5.0 (Windows NT 10.0; Win64; x64) AppleWebKit/537.36 (KHTML, like Gecko) draw.io/26.0.3 Chrome/130.0.6723.137 Electron/33.2.1 Safari/537.36" version="26.0.3">
  <diagram id="sU1eFDCjPMehlGD9XlzH" name="Page-1">
    <mxGraphModel dx="1418" dy="940" grid="1" gridSize="10" guides="1" tooltips="1" connect="1" arrows="1" fold="1" page="1" pageScale="1" pageWidth="850" pageHeight="1100" math="0" shadow="0">
      <root>
        <mxCell id="0" />
        <mxCell id="1" parent="0" />
        <mxCell id="dDbz6tNlugugnMeiO2d0-4" value="On-Premise" style="outlineConnect=0;gradientColor=none;html=1;whiteSpace=wrap;fontSize=12;fontStyle=0;shape=mxgraph.aws4.group;grIcon=mxgraph.aws4.group_on_premise;strokeColor=#858B94;fillColor=none;verticalAlign=top;align=left;spacingLeft=30;fontColor=#858B94;dashed=0;" parent="1" vertex="1">
          <mxGeometry x="40" y="320" width="720" height="680" as="geometry" />
        </mxCell>
        <mxCell id="dDbz6tNlugugnMeiO2d0-5" value="" style="rounded=0;whiteSpace=wrap;html=1;fillColor=#f5f5f5;strokeColor=#666666;fontColor=#333333;" parent="1" vertex="1">
          <mxGeometry x="80" y="360" width="640" height="440" as="geometry" />
        </mxCell>
        <mxCell id="dDbz6tNlugugnMeiO2d0-8" value="" style="rounded=0;whiteSpace=wrap;html=1;fillColor=#E6D0DE;" parent="1" vertex="1">
          <mxGeometry x="200" y="480" width="280" height="180" as="geometry" />
        </mxCell>
        <mxCell id="FH3NqwZfaj9H6SlRPo3W-9" value="" style="edgeStyle=orthogonalEdgeStyle;rounded=0;orthogonalLoop=1;jettySize=auto;html=1;startArrow=none;startFill=0;entryX=0.5;entryY=0;entryDx=0;entryDy=0;" parent="1" source="eEIXSNO6dx6YmKYksSZ7-15" target="eEIXSNO6dx6YmKYksSZ7-16" edge="1">
          <mxGeometry relative="1" as="geometry">
            <mxPoint x="580" y="330" as="targetPoint" />
          </mxGeometry>
        </mxCell>
        <mxCell id="eEIXSNO6dx6YmKYksSZ7-15" value="DockerHub" style="outlineConnect=0;gradientColor=none;html=1;whiteSpace=wrap;fontSize=12;fontStyle=0;shape=mxgraph.aws4.group;grIcon=mxgraph.aws4.group_aws_cloud;strokeColor=#858B94;fillColor=none;verticalAlign=top;align=left;spacingLeft=30;fontColor=#858B94;dashed=0;" parent="1" vertex="1">
          <mxGeometry x="600" y="40" width="120" height="160" as="geometry" />
        </mxCell>
        <mxCell id="dDbz6tNlugugnMeiO2d0-2" value="AWS Cloud" style="outlineConnect=0;gradientColor=none;html=1;whiteSpace=wrap;fontSize=12;fontStyle=0;shape=mxgraph.aws4.group;grIcon=mxgraph.aws4.group_aws_cloud;strokeColor=#858B94;fillColor=none;verticalAlign=top;align=left;spacingLeft=30;fontColor=#858B94;dashed=0;" parent="1" vertex="1">
          <mxGeometry x="80" y="40" width="400" height="160" as="geometry" />
        </mxCell>
        <mxCell id="dDbz6tNlugugnMeiO2d0-1" value="AWS IoT Core" style="outlineConnect=0;fontColor=#232F3E;gradientColor=none;strokeColor=#ffffff;fillColor=#232F3E;dashed=0;verticalLabelPosition=middle;verticalAlign=bottom;align=center;html=1;whiteSpace=wrap;fontSize=10;fontStyle=1;spacing=3;shape=mxgraph.aws4.productIcon;prIcon=mxgraph.aws4.iot_core;" parent="1" vertex="1">
          <mxGeometry x="359.99999999999994" y="80" width="80" height="100" as="geometry" />
        </mxCell>
        <mxCell id="dDbz6tNlugugnMeiO2d0-15" value="Greengrass" style="text;html=1;strokeColor=none;fillColor=none;align=center;verticalAlign=middle;whiteSpace=wrap;rounded=0;" parent="1" vertex="1">
          <mxGeometry x="120.00000000000001" y="360" width="70" height="20" as="geometry" />
        </mxCell>
        <mxCell id="eEIXSNO6dx6YmKYksSZ7-1" value="AWS Greengrass" style="outlineConnect=0;fontColor=#232F3E;gradientColor=none;strokeColor=#ffffff;fillColor=#232F3E;dashed=0;verticalLabelPosition=middle;verticalAlign=bottom;align=center;html=1;whiteSpace=wrap;fontSize=10;fontStyle=1;spacing=3;shape=mxgraph.aws4.productIcon;prIcon=mxgraph.aws4.greengrass;" parent="1" vertex="1">
          <mxGeometry x="120.77000000000001" y="80" width="80" height="110" as="geometry" />
        </mxCell>
        <mxCell id="eEIXSNO6dx6YmKYksSZ7-2" value="AWS Secrets Manager" style="outlineConnect=0;fontColor=#232F3E;gradientColor=none;strokeColor=#ffffff;fillColor=#232F3E;dashed=0;verticalLabelPosition=middle;verticalAlign=bottom;align=center;html=1;whiteSpace=wrap;fontSize=10;fontStyle=1;spacing=3;shape=mxgraph.aws4.productIcon;prIcon=mxgraph.aws4.secrets_manager;" parent="1" vertex="1">
          <mxGeometry x="241.54" y="80" width="80" height="110" as="geometry" />
        </mxCell>
        <mxCell id="eEIXSNO6dx6YmKYksSZ7-3" value="" style="outlineConnect=0;fontColor=#232F3E;gradientColor=none;strokeColor=#ffffff;fillColor=#232F3E;dashed=0;verticalLabelPosition=middle;verticalAlign=bottom;align=center;html=1;whiteSpace=wrap;fontSize=10;fontStyle=1;spacing=3;shape=mxgraph.aws4.productIcon;prIcon=mxgraph.aws4.greengrass;" parent="1" vertex="1">
          <mxGeometry x="80" y="360" width="40" height="40" as="geometry" />
        </mxCell>
        <mxCell id="eEIXSNO6dx6YmKYksSZ7-6" value="" style="endArrow=classic;html=1;" parent="1" edge="1">
          <mxGeometry width="50" height="50" relative="1" as="geometry">
            <mxPoint x="160" y="190" as="sourcePoint" />
            <mxPoint x="160" y="360" as="targetPoint" />
          </mxGeometry>
        </mxCell>
        <mxCell id="eEIXSNO6dx6YmKYksSZ7-7" value="" style="endArrow=classic;html=1;" parent="1" edge="1">
          <mxGeometry width="50" height="50" relative="1" as="geometry">
            <mxPoint x="281.04" y="190" as="sourcePoint" />
            <mxPoint x="281" y="400" as="targetPoint" />
          </mxGeometry>
        </mxCell>
        <mxCell id="eEIXSNO6dx6YmKYksSZ7-11" value="&lt;font color=&quot;#0000ff&quot;&gt;Direct to AWS IoT Core&lt;/font&gt;" style="text;html=1;strokeColor=none;fillColor=none;align=center;verticalAlign=middle;whiteSpace=wrap;rounded=0;" parent="1" vertex="1">
          <mxGeometry x="400" y="400" width="90" height="40" as="geometry" />
        </mxCell>
        <mxCell id="eEIXSNO6dx6YmKYksSZ7-12" value="Secret Configuration" style="text;html=1;strokeColor=none;fillColor=none;align=center;verticalAlign=middle;whiteSpace=wrap;rounded=0;" parent="1" vertex="1">
          <mxGeometry x="200.77" y="240" width="79.23" height="40" as="geometry" />
        </mxCell>
        <mxCell id="eEIXSNO6dx6YmKYksSZ7-13" value="Deploy components" style="text;html=1;strokeColor=none;fillColor=none;align=center;verticalAlign=middle;whiteSpace=wrap;rounded=0;" parent="1" vertex="1">
          <mxGeometry x="80" y="240" width="79.23" height="40" as="geometry" />
        </mxCell>
        <mxCell id="eEIXSNO6dx6YmKYksSZ7-14" value="" style="aspect=fixed;html=1;points=[];align=center;image;fontSize=12;image=img/lib/mscae/Docker.svg;" parent="1" vertex="1">
          <mxGeometry x="635" y="99.5" width="50" height="41" as="geometry" />
        </mxCell>
        <mxCell id="FH3NqwZfaj9H6SlRPo3W-11" value="" style="edgeStyle=orthogonalEdgeStyle;rounded=0;orthogonalLoop=1;jettySize=auto;html=1;startArrow=none;startFill=0;entryX=1;entryY=0.5;entryDx=0;entryDy=0;exitX=0.5;exitY=1;exitDx=0;exitDy=0;" parent="1" source="eEIXSNO6dx6YmKYksSZ7-16" target="dDbz6tNlugugnMeiO2d0-8" edge="1">
          <mxGeometry relative="1" as="geometry">
            <mxPoint x="580" y="510" as="targetPoint" />
          </mxGeometry>
        </mxCell>
        <mxCell id="eEIXSNO6dx6YmKYksSZ7-16" value="Docker application manager component" style="rounded=1;whiteSpace=wrap;html=1;" parent="1" vertex="1">
          <mxGeometry x="620" y="400" width="80" height="60" as="geometry" />
        </mxCell>
        <mxCell id="pRWS1FV3pOWH-M-R4NUc-1" value="" style="edgeStyle=orthogonalEdgeStyle;rounded=0;orthogonalLoop=1;jettySize=auto;html=1;" parent="1" source="eEIXSNO6dx6YmKYksSZ7-17" target="09qVIn4garVTmZvIWG27-8" edge="1">
          <mxGeometry relative="1" as="geometry">
            <Array as="points">
              <mxPoint x="280" y="470" />
              <mxPoint x="280" y="470" />
            </Array>
          </mxGeometry>
        </mxCell>
        <mxCell id="eEIXSNO6dx6YmKYksSZ7-17" value="Secret manager component" style="rounded=1;whiteSpace=wrap;html=1;" parent="1" vertex="1">
          <mxGeometry x="230" y="400" width="100" height="40" as="geometry" />
        </mxCell>
        <mxCell id="09qVIn4garVTmZvIWG27-4" value="" style="rounded=0;whiteSpace=wrap;html=1;" parent="1" vertex="1">
          <mxGeometry x="239.23" y="510" width="200" height="120" as="geometry" />
        </mxCell>
        <mxCell id="09qVIn4garVTmZvIWG27-6" value="" style="aspect=fixed;html=1;points=[];align=center;image;fontSize=12;image=img/lib/mscae/Docker.svg;rounded=0;" parent="1" vertex="1">
          <mxGeometry x="315.61" y="580" width="48.78" height="40" as="geometry" />
        </mxCell>
        <mxCell id="09qVIn4garVTmZvIWG27-8" value="aws.greengrass.labs.HomeAssistant" style="text;html=1;strokeColor=none;fillColor=none;align=center;verticalAlign=middle;whiteSpace=wrap;rounded=0;" parent="1" vertex="1">
          <mxGeometry x="160" y="480" width="360" height="20" as="geometry" />
        </mxCell>
        <mxCell id="FH3NqwZfaj9H6SlRPo3W-3" value="" style="edgeStyle=orthogonalEdgeStyle;rounded=0;orthogonalLoop=1;jettySize=auto;html=1;startArrow=classic;startFill=1;dashed=1;exitX=0.804;exitY=0;exitDx=0;exitDy=0;exitPerimeter=0;fillColor=#0050ef;strokeColor=#0000FF;" parent="1" source="09qVIn4garVTmZvIWG27-4" target="dDbz6tNlugugnMeiO2d0-1" edge="1">
          <mxGeometry relative="1" as="geometry">
            <mxPoint x="400.77" y="320" as="targetPoint" />
            <mxPoint x="400" y="400" as="sourcePoint" />
          </mxGeometry>
        </mxCell>
        <mxCell id="FH3NqwZfaj9H6SlRPo3W-7" value="" style="shape=image;imageAspect=0;aspect=fixed;verticalLabelPosition=bottom;verticalAlign=top;image=data:image/png,iVBORw0KGgoAAAANSUhEUgAAAggAAAIICAYAAAAL/BZjAAAgAElEQVR4Xuy9B7wkZZnv/6vOJ0zOec4EhjCEgSGD7q7hyrruGskZvWtY411Q2XUvu//rCuoVTBgRQYICSlAYMlwVDBhIw+SZEyeHE/t0rv/neauqu7q6qqs6VVV3P+VHZuacSu/vfavebz3vEyTwxgqwAqwAK8AKsAKsgEEBiRVhBVgBVoAVYAVYAVbAqAADAo8JVoAVYAVYAVaAFShRgAGBBwUrwAqwAqwAK8AKMCDwGGAFWAFWgBVgBVgBewXYgmCvEe/BCrACrAArwAq0nQIMCG3X5dxgVoAVYAVYAVbAXgEGBHuNeA9WgBVgBVgBVqDtFGBAaLsu5wazAqwAK8AKsAL2CjAg2GvEe7ACrAArwAqwAm2nAANC23U5N5gVYAVYAVaAFbBXgAHBXiPegxVgBVgBVoAVaDsFGBDarsu5wawAK8AKsAKsgL0CDAj2GvEerAArwAqwAqxA2ynAgNB2Xc4NZgVYAVaAFWAF7BVgQLDXiPdgBVgBVoAVYAXaTgEGhLbrcm4wK8AKsAKsACtgrwADgr1GvAcrwAqwAqwAK9B2CjAgtF2Xc4NZAVaAFWAFWAF7BRgQ7DXiPVgBVoAVYAVYgbZTgAGh7bqcG8wKsAKsACvACtgrwIBgrxHvwQqwAqwAK8AKtJ0CDAht1+XcYFaAFWAFWAFWwF4BBgR7jXgPVoAVYAVYAVag7RRgQGi7LucGswKsACvACrAC9gowINhrxHuwAqwAK8AKsAJtpwADQtt1OTeYFWAFWAFWgBWwV4ABwV4j3oMVYAVYAVaAFWg7BRgQ2q7LucGsACvACrACrIC9AgwI9hrxHqwAK8AKsAKsQNspwIDQdl3ODWYFWAFWgBVgBewVYECw14j3YAVYAVaAFWAF2k6B9gIEWZY+/QZmRIGTshKOl2SskiUskmTMloBOABEAgbYbBdxgVoAVYAVYAUiALMtIyxISsoQjkLFXkrAzALyRBv7S/zoG7z9fyraLVC0LCDc8J4dG5mJqKIcZwSBOyMl4hwScDRlrICHULh3M7WQFWAFWgBWoiwKyJGF3VsYfATwHCS+EYxja3YeRH/8tkoAk1+UqPjpJywHCx7fJ0SlprM5mcVIugLcEgL8DsLicZYCQkTdWgBVgBVgBVqCggASpzAwpAaOyhN/ngMcCWbyUCmDzzcdJh1tJwZYBhA9slCMrAlgPGX8nyXi7DJwMoEvfWQQCWfp/TkYulxN/p5/lGBBaaUxzW1gBVoAVqFkBCRICkoRAQPl/UJIQDATEz4rnFWQlCVtlGc9JEp7MhPDC/10jHaz5BnxwgqYHBFmWpWs34biQjItlCW+HjBMAhDVtafJPZbNIZbJIZ3PI5HLIESCocCCDIAFgG4IPRiPfAivACrACPlBAmxglAgQJkKQAgiokhAIBREJBhENB0N8Nk2gvJPw6F8C9I+P49ffXS3EfNKfqW2hqQPj47+WpsW6cH5DwIchYC0k4GorJPp3NYjKVRiKdzUMBWQsYBKoeK3wgK8AKsAJtr4ACDWRNkBANBdERCSEWCoF+rm5pAP0y8JAk4xs3rZX6m1W0pgWE61+T52WD+DJkvE8GOgnyqBPIWjA2mUIinVaXEJq1a/i+WQFWgBVgBfysgJh0JAnRYABTOqLoCBeBQgrAa8jhEzcdL73o53ZY3VvTAcINshwafx3HBgO4D8AaYTGQFTAYT6QwkUqJf/PGCrACrAArwAq4qQBZFKbGoohFQnlfBRmYBPCp9FT85OYlEv29abamAoTP/kmeJsfwbimAr0PGNFoyyORkxJMpjCVSwmLAGyvACrACrAAr4JUCtNTQGQ6hOxYRvgqqU6MsAd8ORvHlL67EIKTmCIlsGkD411fkuVIQV0sSrpWAmeRkSD4G48k0kukM+xZ49TTwdVkBVoAVYAVKFAgFA+iORtAVCYP+Dkq+lMODoQD+O3If3rjhBinnd9maAhAIDgIhfEQCPgpgLkUikMVgIpkWDoi8sQKsACvACrACflOArAexcAhTOyLCkRG03CDjMeTwnzcdj9f9bknwPSCoywofliR8huCAwhWPxBNIZrKcv8BvTwPfDyvACrACrECJApFgAFM7ouiKRsibnvwQfiWlcN2N66ReP8vla0Agh8T4RlwCCV8DMJOWEjQ48LOofG+sACvACrACrIBeAcqZQJaEKbEoQUISwN0dM/DxGxb6N1eCrwHhMy/L68IRPEcOiYl0BocmJkWyI95YAVaAFWAFWIFmU4ByJ0zviKI7GhVpnHMyPv+VtdKNfm2HbwHh2o3y/ADwPIUyJjIZHJlQlhV4YwVYAVaAFWAFmlUBsiRM74wK50VJktLI4T0dP8cGPzot+hIQPr5NntqZwrcBXKr5HEymM806Hvi+WQFWgBVgBViBvAIU1TCjI4bOSAhSQNoKGe+96Thpo98k8h0g3HCDHJh8P66BhJuzObnrcHxSRCvwxgqwAqwAK8AKtIoC5Lg4s6uDohsyOeCuYA6fufEE6Yif2uc7QPjsJvl45PBDWZZPHZ5MSKOJtKi4yBsrwAqwAqwAK9BKClDo4+wpHVT0aY8s4bNfPgZ3+Sn00VeAcMNGOTIJ/CdkfGIile4kp0QuxdxKjwO3hRVgBVgBVkCvwJRohCwJ2UAAG7JZfOorx0s7/KKQrwDhs6/JZyGIb6QzuVP2jU0gk2XLgV8GCt8HK8AKsAKsQP0VoGRKs7rIHyE8LAdw7ZePwW2ST1Ix+wYQPr5NjnakcR1kfOHw+GR4jP0O6j8S+YysACvACrACvlOA/BHmTOmklMwP5TL4zFdPlHb54SZ9AwjXvyGvzcjydxLp7DkHxxOcQtkPo4PvgRVgBVgBVqDhCpAVgZIoTe+IHJYgXd1xLH55g+R9rQZfAAJlTJx8Axdmc/J3D8cTXRS1wIsLDR+TfAFWgBVgBVgBnyhApaJpqSESDN6aSuPfblknDXt9a74AhE9vlGeGZNycSKcvPxxPcrZEr0cFX58VYAVYAVbAVQWoTPT0GKVijuzKBqS333yctN3VGzC5mF8AYVUwJz8/PJlcRFUa2Xrg9bDg67MCrAArwAq4rUAsHMSszo5sJBS4/KbjpHvcvr7xer4AhGtfky/IyNl7DoxNBlJca8HrMcHXZwVYAVaAFfBAAarPMLurA53R8N1fOU661INbKLqkLwDhujfk749Ppj50cCLhtR58fVaAFWAFWAFWwDMFuqNhzOyK7f/q2sA8z25CvbD3gCDL0rUb5dcOjk8eN5HiegteDwi+PivACrACrIB3CoQCEuZP7YKMwAk3nyC95t2dgMpSe7t9/g/yrERHbu++0YlQJsfeB972Bl+dFWAFWAFWwGsF5nTH0BGKfPyrJ0jf8vJePAeE6zbKb4mn0k/vH5v0Uge+NivACrACrAAr4AsFaJlh9pSOO758rHSllzfkOSBc+4b8ySPjiVtGEykvdeBrswKsACvACrACvlAgHAxg8fTuP990nLTeyxvyAyB8a+/wxMeSmayXOvC1WQFWgBVgBVgBXyhAE/OiGd2jXzs+OM3LG/IDIPyi79DYe7iks5fDgK/NCrACrAAr4CcF5k7plDsCoSlfPVGa8Oq+PAeET72W+c3QkYlzvBKAr8sKsAKsACvACvhNgRkdUXTL0aVfO00a8OrePAeEj/wp+drBeGKtVwLwdVkBVoAVYAVYAb8pIBwVIx1HfWWdtM2re/McEK75Y7x/NJFe4pUAfF1WgBVgBVgBVsBvCsRCQUzpiKy7dV3kZa/uzXNAuPx34/sn09k5XgnA12UFWAFWgBVgBfymQDggIRwMnXPHmZ0veHVvfgCEQ5Pp7EyvBODrsgKsACvACrACflMgGJAQkqW/vevcKc97dW+eA8IlL4wNp7I5T0M5vBKfr8sKsAKsACvACpgpEJQkBOXcW+9+0/RnvFLIe0B4cWw4lWFA8GoA8HVZAVaAFWAF/KcAAUIEubfdee70p726OwYEr5Tn67ICfldArrI2CtWs5Y0VYAVqUoABAcAlbEGoaRDxwaxATQpUCwHVXpThoVrl+Lg2U4ABgQGhzYY8N9dzBdwGArsGMzDYKcS/b1MFGBAAXMwWhDYd/tzshirgNxCotLEMDpUqxvu3mAIECNF290FgQGixUc3N8VaBZgcDo3oMCt6OJ766ZwowILAFwbPBxxduIQVchgLtcq7P3a5fsIXGCDel6RRgQGBAaLpByzfsMwUaAAf1OmVD5vOGnNRnfcq3wwoAYEBgQOAHgRWoToE6zeJ1Oo3jNtRtfq/biRzfOu/ICriqAAMCA4KrA44v1iIK1Dir13h43USsyxxfl5PUrUl8IlagbgowIDAg1G0w8YnaQIEqZvYqDlGFrDJJUr4bqkuWVNV8X9VBbTBeuIlNrQADAgNCUw9gvnkXFahwpq9wdwC1AkE5LSqHharm/KoOcrEP+VKsQAUKMCAwIFQwXHjXtlSgwpm+st0bCQW1A0NV831VB7XlyOJG+1wBBgQGBJ8PUb49TxWobLaHs90rgAJnJyyVqKJJ2t66UNHp6G4qPsDTXuaLswKmCjAgMCDwo8EKmCtQ4eRsv7sDMLA/SXW95WjCLg8Kjk6h3V1FO1fXJD6KFWi0AgwIDAiNHmN8/mZUwOFELaZ823m/zA5lrmN7Wge6mk75tpO3jUVBAuxtDmxFcNA9vIvPFWBAUAEhmclN83lf8e2xAu4o4BAOBBuUncUrA4OwBMzvCGBOLIhIEMjJMuIZGXvjORxK5ZCrghgkOxgo+3trDLA7bVFHVbSzO13MV2EFnChAgBDjWgxjwwwIToYL79PyCjiEg6rAwPIgGXNjAZwzN4oTZoQwOxZAOCAJ+JjM5rAnnsNLB1P47f4UUlkHlOBgQrYEB9Nj6wAKDu6p5ccWN7DpFGBAYAtC0w1avuEGKVAzHFhM3ibnldWf0dS7pDuI9y2NYd2sCLpCUon5niwHI6kcXjiQxL07JjHpBBL0EpWZnE1BwXJ/c1BwPPc73rFB/cunZQUqVIABgQGhwiHDu7ekAo2AgzJgoGm4sDOAS1d0YP2sCEKB8iv7aRl4dvckfrIjLpYerLcy57GYpJ2DAkNCS45/bpSpAgwIDAj8aLS7AjXBgclEbXE+zWqgyT0nGsDlqzpw5pwobNgg30PJrIwndyfwQG8cY0QMjjYLYDDAQj2WHRwZCRzt5KhhvBMr0FAFGBAYEBo6wPjkPlfABTgwggE5F8yJERx04sw5EQQqnDAnMjKeGprELwcmcSSZMw2isHZONIEFJ6BQgW+CbXNsd/D5mOHbaxsFGBAYENpmsHNDDQo0GA7MwICm50VdQVzU04HTq4ADrQWj6RyeGkrgsYFJHE7lynatOSxUAQoMCfwItZkCDAgMCG025Lm5QgEHcGC+i/2SQhEY6E5CU/Ly7iA+sLwDp1WwrGDVYwQJzwxN4sG+SYyly0CCycReCg0GYNAdU7KvQ1BwZChwtBOPWVbAGwUYEBgQvBl5fFXvFPAIDpapcHDK7AgiTp0ObFQaz+Tw3O4E7t0xgUkzx0WjoaDscoI1JNBtFIECQ4J345ev7JoCDAgMCK4NNr6QDxRoEBxYWQ2UFstY0hnERSs6cXId4UBTkxwXn98ziTu2jiOelVEaKKnuqZ//nYJCuf0YEnwwoPkWGqkAAwIDQiPHF5/bTwq4AQdFyxfKcgRFK1y5ugun12FZwUrOtCzjqcE47to2ISBBv5UAg4VVoeyyg9WSA0OCn0Y430udFWBAAHDhi2PDKU61XOehxafzlQIO4IDCAUo9DMr7HFhbDgpwcNmqLpw9t/JohUr1i2dyeHIwjgd74yKxkmz8+hcn1NGBCSiIHxUdp9+/8PdKlxuU89q0iP0RKu1y3r/BChAgdLR7qmUGhAaPMj69two4gINKHRLNIhSURhaAYkFHAJeu7MIZNUQrVCocOSsSJDzaH8dhfQhkCSxYgIKlc6K6f0VLDqVEYMsAtjtUqgjvzwpUrwADAlsQqh89fKT/FfAIDpZ1BXD+8k6cMTfmOAlSvcQcTWXx1OAkHumbwDCFQBonXT0EmFkUvIaEEitGvZTh87AClSnAgECA8AIvMVQ2bHjv5lDAdM2g6NbNyzVbLyvIResQ2vn1+8tY3h3C+T0dOHV21DZ9cqN0JEvC00Nx/Gz7OGjpQfgh5D/oDX9Xb6J4H91Sg9i9yMNRPZdmVdD93nQtwRgdYb/aoFzObk2iUerxeVkBRYFggJcYGBD4aWg9BeplOdCdx9zfQAcHsoyl3UFc2NOJU2ZHEQl6O8ERGDw/FMcdW8aKCjyV+A84tCgUOzGWLjmU90uoYrmBLQmt91w2WYuEBUHKve3Oc6c/7dWte/sWYQuCV/3O122UAi7DgQYOCzuDIIfEU2fbF15qVNON503nZDw7GMftW0bUAk9lHA3NQEHb3XTZgSHBrX7k63ijAAMCA4I3I4+v2hgFXIYDagQBAtVWuHJVF86c577PgZ2QCSrw1D+O+3aMg7IvKpsJKGgQoP6ZX1ZgSLCTmH/fogowIDAgtOjQbsNmuQwHmuWA4OCKVV04ax5VZfTcIGja8eMU3TAwjkd2TeAIhUDm9zKAggESFJTQ+SyUWBKqCYOsYrnBp7q24VPWVk1mQGBAaKsB37KN9QAOaJpb1BnEJSs7cfpc/8KBsHIAoOiGJ/sn8GjfuAiBNMt3kPcjMLMmFPkpKv8o+B24sNzAkNCyj69fG8aAwIDg17HJ9+VUAVfgoPDNTZYDmg6VwksaHDi9WW/3G03l8PTgBH6xcwz09xIgUJcexM8dWhNchQSFSrwVka/eNgowIDAgtM1gb8mGegQHVHjpfBGtUL/CS271zwRVgRycwD3bRoXjYikkqAsLRkDQ+yYY/BIYEtzqPb6OmwowIKiAkMzI09wUnq/FCtSsgAM4oLLOJlkNii9dNpSx1HKwuDOAi1d04pQ5zQcHWsPJcfH5oQncvmlEDYEstRgUfA+Kf6cuLhT8HDVwMKZorqh+Q6FLlBQIDqwETvapeZDxCdpZAQKETinLYY4MCO38GDRh2x3AQUk6ZLNmOsxzkHdIjAZw1VGdOKOBhZfc6o10LoenBuK4YzNBgnrVkmUFqdTC0BBLQmmrS4tHmSjDkODWcGnL6zAgsAWhLQd+UzfaQzi4bFUHzvFxtEKl/RpP5/DEwAQe3DmGYb3jYhEo+BgSGBAq7XLevwIFGBAYECoYLryr5wp4BAcLOwK4eGUnznKhKqPbGlMI5OP94/hV7wQOJ7KlzoliEtZFLZSLcChZbqg0uqEKSwJDgttDpm2ux4DAgNA2g73pG+oBHND0trQrgAt6qPBS40s2e9VHWgjkw7vGMJwycVzMT8IGawIvN3jVZXxdFxRgQGBAcGGY8SVqVsAVOCh1SOyhUEZReMk/6ZNr1tLiBGOprIhuuFeNbhApkvTWgioggS6lnMMFS4JysUbJw+dtQwUYEBgQ2nDYN1mTPYADUogsBxdRtMKsiOeFl9zqMfJJeG73BO7cXKjdYJ48iS0JbvUJX8c7BRgQGBC8G318ZXsFXIEDug3FepAvvNQRwKWrOnFaG1gOjJ1ABZ6eGRjHbZtGQOGQJZaE/Je6c0hgS4L9UOc9/KcAAwIDgv9GJd+RooBHcDAnKqm1FVrX58BuiCkFnsbws21jaoEnq0gG55BQfTKl0rvlEEi7HuTf10MBBgQGhHqMIz5HvRXwEA4uX9WFs+e1LxxoXTmezuKJfirwNI4jSSrw1GSQwP4I9X4q2+58DAgMCG036H3fYA/gQCm8FFAKL81hONDGCEU3ECSIEMgkZVOyCnf0qSWBIcH3j7ufb5ABAcAFL4wNcyZFPw/TNro3B3BQafrkov3z51cjFtR/93QHcH6TFV5ya1QQJDw9MIEHdoxiNK36JGh+CLooByU1cyFaoWhJQVe7IR9nYBLdUJJm2WaC57TMbo2C9rxOiFMtMyC059D3YasdwEHt6ZOtQxnXN2HhJbd6kZYbnh2M464tw4iLtMzmlgSnkKDwRZ4alGZUWbuh+FxlFGFrglvDpWWuQxaErnavxcAWhJYZz83bEA/ggMSiwku0rMBwYD90klkluuH2zcNq7QaGBHvVeI9mVoABgZcYmnn8tsa9uwIHJFVxKOPcqISrj+rC6S1QeMmtgUAhkE/11xcSChYATqbkVj/ydZwpwIDAgOBspPBejVHAIzjQQhk5WqHybo1ncsJx8Rc7RkVaZopuyE/yRbUYnPkkuL7cwEsNlXd6mx7BgMCA0KZD3wfN9ggOqPDSJSs6cRaHMlY9CCgts1LgaRyH1RBIhoSq5eQDfaoAAwIDgk+HZovflgdwoBVeovTJHMpY+/hSCjyN4yG1wBM7LtauKZ/BXwowIDAg+GtEtsPduAIH1tEK7Zg+uVHDaiyVw9OD47h7ywgSOWFDKFluoOiESqIb2CehUb3F561UAQYEBoRKxwzvX4sCHsAB3e5yKtm8ohPr26jwUi3dVMmx5JPw3OAE7tjMIZCV6Mb7+l8BBgQGBP+P0la5Q1fggMQqLbx02cpOnDan9Us2ezVURHQDhUBu4hBIr/qAr1t/BRgQGBDqP6r4jKUKeAQHFK1w1VFdOJPTJzd8VFKeBCrwdO+2QsbF/HJBFRkXtRtWEipxCGTDO5AvUKIAAwIDAj8WjVbAQzigwkvncLRCo3s4f/7xNIVAjuFhXYEnIyTkJ3wHaZnzx4oruAAJHALp2lhphgsxIDAgNMM4bd57tIEDsRjgACC0fUr219VW0P9uSWcAF6/sxBlsOXB97Iymc3i8b8w0BDKfXtnEcVFxZlRBQFe7QfmR7nfqv4stDOq/nEzw+XNZSOPkHK6ryhf0QgEGBBUQEhl5mhcdwNdsYQUcTPy111YQhCFEpHPRvLKsO4ALewgOogjkKwO1sM4+bJoIgRwYxwM7xvIFnug2AzT5VrncwLUbfNjRLX5LBAjdXIthbJgBocVHutvNcwUOSkMZl3cHcEGPEq0QDrjdaL6eXoGJdA7PDk3gzi0jRQWeaoEExXjAPgk80txRgAGBLQjujLR2uooHcEDy0rLCJSs6cApXZfTNaBMFngYnRIEnfRXIWiCBLQm+6d6WvxEGBAaElh/krjbQFTgoXlagf1G0wtWreVnB1b52eDElBHICPzJUgWwqSFBMFw5bzLu1igIMCAwIrTKWvW+Hh3BwxapOnD03oqxx8+Y7BZQCTxP4+c7iAk96SKhndENhKcLZxF6wSjiUjseZQ6GaezcGBAaE5h7Bfrl7j+BgYYeEi1cwHPhlGJS7jzGKbugfxy8NBZ78AglFUFGNoNVAg4PnRtxKNeeupg18TJECDAgMCPxI1KqAg5dcI6IVlnZRtEIHRyvU2n8uHj+ayuGJgXE8vGsMR1LkZKpYfBq13FCpJaFmSHBRS8tLMUzUrRcYEBgQ6jaY2vJErsCBebTC+cs7wIWXmm/UkSXh6YEJ3L11BJO6Ak9+ggRN1YqXHpqlOxgiHPUUAwIDgqOBwjuZKOABHNBdUOElshycwoWXmnZYkk/C80PxukY3FL7+dX4ouomwaLKvYIJsWUgoUFDTjqNG3zgDAgNCo8dYa57fFTgg6YoLLy3okECFl06fzYWXmn1gpWUZT/U3OARSoYa8VNVCQstbFBgWTB8nBgQGhGZ/z7p//x7BgSi8tKoTZ87lDInud3pjrpjMKtEN92wbwVhGzObiQrUsNzTKktAYBao/a0MtGxVYWKpvgf+PZEAAcP4LnEnR/0PVJ3foAA6obkLBa8DivnXnKXJg1NVWEEeq/yY44FBGn4yBOt8GFXii6IaHddENAhN0aZlpMhTVGOwKPOUzLWqWg/ouN9S56XU7XVFwbz0n93qeq26tde9EIU61zIDg3nBr8is5gIN6RitocLCYCi/1dOBMznPQ5API+vapdsOG/gn8qm8ch5LkuaiWbXILEjQgaUGF62JpaFNQIAvClHavxcAWhBZ8K9S7SR7AQb7w0vIOnM6Fl+rdo747n1LgaQIP7Cwu8CQmOHWCMrMklCwp5KtCG8tDO7AmaKq08IRYMzC0sDbGh4IBgZcYfPei9N0NuQIHukUJ9Xqi8NLyDqzn2gq+GxKNuiFabqACT3dsGcFkVkz94lLOIUE9ph6Q0MJWhQJUVdmTbQIJDAgMCFU+IW1ymEdwQMsKl3LhpTYZZMXNVAo8jeNHm4urQNYMCfkJ35CO2yrKwah+i06KVVsUWlQPfbczIDAgtOVL2FGjXYEDuhPVeqBeb7ZaeOlMXlZw1E2tuBMVeKLoBqoCqU+m5BwSNBOCoo55eKP5kkPNX9dudkgdJ+mqQKGO13dTNqfXYkBgQHA6VtprPw/h4EouvNReY82itVqBpwcMBZ70kEC+CeJ/uuiGwgRvAQlFk5q1NUG7raomTi96sE6TdcXtrdN1vZDM7poMCAwIdmOk/X7vERxQEqRLV3TiLI5WaL8xZ9FircDTI4YCT9VCQpF1wAoUykx4lUyejiJ6KuzpSq5fS4Gniq6TX7qpsDFNsDsDAgNCEwxTF2/RIzhYxoWXXOzk5roUFXhS8iQUF3hyDgliBlPXGgxLDiUwYG9R8Jt6tpN5lV/4tuc1ClHldfymp/5+GBAYEPw8Pt29N1fgwDxa4cLlHTiV0ye7299NdDWyJDxFBZ62adENyqRftLSgLTfov2h14ZFGSCiyJph+BRtgwW96VWPpqGISrwgUqji/32RlQDD0COdB8PMQdenePIIDshxcxIWXXOrk5r6MVuDpR5uHEc9qpaKrhASdUcEeFAw710XGcrlGqwATi4nZdHKvYhJ3DAlVnLsucjboJGxBYAtCg4ZWE53WFTggPYqjFcjn4PKVnVyyuYmGite3qhV4UiBBuxszJ8WAsqhg6rxopAPlPCWToO8nuzIgYbj3eoBCO0ICA4IKCJMZeZrXDz9f3wMFPIIDqjjzMTgAACAASURBVK2gRCtw4SUPer2pL0l5Esgn4Z5toxjNaF/ipZCgRTios79GAQIE1PRLBR2KIh5NJt56wYKD563ofh31VA2gUEG7HAOCHswc3b9/dyJAmMqplseGGRD8O0gbdmcOXlaOPLErLLxEeQ6oKuPZHK3QsK5t9ROPp7N4vH8CD/WO4XBSKw5WmnXRChI0i0E5UDBaFUIS0BWSEAtJCNY0Ccp5Y1pJPylmD9Puo2eRVlbiGRnxHJCzXKUo72hZq6XEEShUAB5+HqsMCGxB8PP4bNy9eQQHlCHxouUxDmVsXM+2zZm16IZH+sdxOF/gSQcJ2iSuVYI0Tur0c82JUflsN7UoBCVgQWcQx0wLYc3UEOZ1BBANUH2IKqWu0v2AgGAyI2MonsOmkTS2jmZFYStxOtMJ2ToRlBF+KrFaOAKEmgCqSl0bcBgDAgNCA4aVz0/pARyIwktdAZy/vANnzomA3q+8sQK1KjCazuGJ/nH8fNc46O/KrG0OCQoCGAs4KZOrOMok5DEcAI6fEcZ5i6M4bloIXWHVt6HWG6/heAKCI8kcXjqUxuNDSewazxaXVy8HC3a+CQ6//JXS2zaNcHiuGqRo+KEMCAwIDR9kvrqAK3BgEsrYRYWXYlx4yVeDoTVuhgo8PTM4gZ9sG9VFN6g4oHdS1E1YJaBQZElQYIEglqwGV6zqwqqpIdASg5828sX4w8E0frprEoOqx6Z5Smntrk3gSP1V+eOsW13WmsCAUJfh4vmwozBH9kGoS1/6+yQewYEovNQTwylcldHf46OJ7y6RyeG53XHcJgo8aSGQCiSI/5qAQh4SlB2U1usmtenhAP55TSfOmhcFfUn6cUtkZTzQO4lfDiYxKdqtNcNqecF62aEaSLBdbvCpbk77ki0IbEFwOlaaez9X4IAkKg5lpGiFq1bRsgJHKzT3APL/3YsCTwP6Ak8aIJhAgg4GTJcdAJwwI4z/WDcNMXJC8PG2YyyDr22cwMBEttiNQj85F03ULkICA0LNI8fz0ccWhJr70N8n8AgOKFrhipUdOIejFfw9Plro7iiZEoVAPrBzDCPp4uiGImuCyeRptChc1NOJi1d12S61ey0fWRFuen0cfzmURv5RtwrbzLe7fpDQyssMbEFgC4LXz3djr+8RHMzvkHDZig6cJRwSPWfgxmrMZ/eVAmMpJQTykT6KbshCFuNPG4MW1gQTi8Kn107BWxZ2+KptZjeTlWXcunkCz+5JijBIs2gM8+WD+kBCKy8zMCAwIPj+BVD1DXoEBxStQA6JSrQCw0HV/ccHVq3ASCorlhse3kUFnnI63wJnoEB7ffaEaTh3fqzqe3DrwJws4wdbJ0REA+WNKjxxegAwRGmYLTnonTgtlyfMW9WqVgQGBAYEt55jd6/jChwURyvQ62i5CgdceMnd7uarlSqgL/BEjotiujQzsRsdGdX9Pnfi9KYABEqg9P2tE9gwmCgAQj5bpM6iQJGJdn4JVUICA0LjnkDPP7HYB6FxnevJmT2AA2qnKNlMoYyzIoj43LHLk37hi7quAPkkPDc0gR9tUgo8FUUziLsptigobKD87HMnESD4f4lBAMKW8TwgKM1S2lCw4GlRGh5AQhNbEdmCAOADHObo+ourYRd0BQ7o7ksLL12xooMLLzWsY/nE1SqQzimlom/bPIyJjA4SLCwKmrPi506agTctaA5A+B4BwgBZEGiNoThks/B1XwwJ+S9Tp8sNNhN9K1oRCBCmtXstBgEIaS7WVO0LyDfHOYGD4pxryq0bU79a1VYwQIHmMi1qK6zswNnz2OfAN2OBb6RIAcqToBR4GskXeCqXB4Emz8+dNLN5AGHTGB4bnES2KOZCrCmoBoXSPA+FolVmeSB0ngzl/BEM9u8iTfU90KRWBAEIgezb7jx3+tNePVKeLzEwIHjV9XW8bn6St070rvzG8PsSOCjso3CCtoNmMVB/pkLEnGgAV66KceGlOnYln6oxClDGxcf7xvDgLirwlIOsOCUUO/Xpfva5dWRB6GzMzdTxrLTE8D0VEJTillRjQvlT/D/PBsX/VgwousqW2jEF00L+LkuXZtRfMSDUsSfNT+UDQBhnC0LDu7mBF6jacmANC8VVHIuXEzTLwZLOAC5ZEcMZc8IcrdDA7uVT10+B0VQWG/rG8UjvmCh0pH5eFybC/GwKfJ4sCAubCBAGJoWTYonVQECC0ZKgNVkpWFWy3GDizFmABEN/GKwDplaEprYgZNrdgsCAUL9XkMtncgMO9NdQ/97TrYQynsGFl1zucL5crQoQJFCBp/u3j6oFnkqrIdJk+Pl1s5oIEEbxWH8xIBRDgUNIKEk5bbXUoOsFJ4CgmCtq7TrXj1eWGBgQ2ILg+tCrwwU9gAN6xJd1q9EKs8OIcFnGOnQkn8JtBcbTWTw9MIE7heNirrSSoyTh+pNnNw8gvDGKx4QFQa1DoZvoi5wUnVgSLCChxAkxHwBSPPG3kh8CA4KIYmALgtsvqJqv5wEc0D0v6ZRwyYoOrGc4qLkL+QTeKkApip8bGMP3Nx5RCzxpKw7KhHf9KXOaChAeHYirmRTF57pFNIPBkqDzNxAeCgQHpk6JhiUK9RKFtRkHkMAWhKoGvOd2FwaEqvrNu4PcgANqnXadvEOihGtWd/Cygnc9z1euswKiwFPfGG7bdASUMyFfr0EDhEVddb5i/U8nnBTfGMGj/XFk1NMrX/HFkGC0JJT6FOj8EUqsCAoRFCdaqnCZgQGhqs5nQKhKtjY9yEM4uHxVDOdy4aU2HXit22wCg8d6R/HA9hEMp3Iibodeyp8/ZS7e3FSAMFHspFgOEqSA6FAjJBBYlEQsGBwWTSHBiR8CA0JVDxEDQlWyteFBHsHBAlF4KYazGA7acNC1R5OpwNOGvlE8vHMUhxJZAQnXEyAs7va9AFSL4Xsbh/Fo/0QhD4Lma6CHhCL/gzJLDVpUgxNfBP3s1YKQwD4I7IPg+xeAuEGP4EBJnxzFGQQHzaEU3yUrUJUCFN0g8iTsGMGRZBbXr5+HNzWFBQEKIAxMKD4IegfFfNim+vTS5K+3COj/rcsBYW5FMIloYECoaqxVchBbECpRqx33dQMOLEIZz18WxWmzwwhxtEI7jry2a/NYOosn+8Zw95Yj+NSJc/CmJrAgkA/CdzcO47EBZYlB+B+UQIL6M6MVQVlnUJ0Tte6WCnlNKrEisAWhIc+LLwAhzqmWG9K5NZ+0AXCgWSPoY0MmY6oBDkQoY1cAFy2PYv2sMBdeqrkT+QTNpAD5JDzTP4p5nWGcNt//TopiieF1xYKg1WLIQ4LJUkNxpIICDorxQMu6qPt3/ufKNBXQp3LOw4PauzpAUGMeSru9yfwQQpwHQQlzZEDw4SusgXBArRXuWCaWg4UdEq5YEWtrywGZao8kcxiYzGF/QgZ5u08LS1jUEcCCjgBiIctobx8OJOtbonaOpHPoj+dwICEjmZXRHQYWdwSxsCOAjhZpZ6WdQv1NX+aRoP8X1hRAOCJ8ELQoBmXSL1gN8lENRRYDNdKhxIpgzLqofsNKUnlA0GBC4wXxpzEXs+ffwxUNBQYE1QeBAaGicdP4nd2AA2qFIZRxLhVeWhXDWW2YIZHMs2PpHF48mMUze9LYMpbFZLa4egVVsZ4TlXDmnCDeOi8CyigZCzYXLBAUUDtfOpzBk3syeGMkh8mssCXlN5oWqQjX6bOCeMv8MFZPCbYtLDT+Ya/tCgVAGC9EMeSXEnS+BzqHRTMrgjK/F6wIhX8XAKHIimC0IBgAQcEDBoTaercEsWo9XeXHswWhcs0aeoSHcHDlSiq81F61FWhipLz8vz+Ywc8H0uiL55z4hGJqWMKb5oTwrkVh9HQHEfb5xya1k6wiLx3O4sHBFLaN5ZCzru2VH+LdIQlnzwniXQvDOGpqyPftbOiz6cOTEyB897XDeMxgQajIiqD3TVCdFfOAoE386j75ZQYGBFdGg+c2FwYEV/rZ2UUaCAd5nwOD5YAG4OLOAC5dEcUZs9sLDuhreud4Fg8OpPD/9mcQzzrrJm0v0o6yS160LIpz5oZAk6kfNwKBgXgODw2m8MzeDMaUsn8VbYs7JVy4NIo3z/NvOytqUIvsrAHCo/3jhSgGXUZExSqg5j0wtSIULAQFC4L6/a93UtT5MxQSMBaqRQo57RwV2Qeh4lHn+RuFAaHiPmvMAW7AgYlDoii8tEyrytiYpvnxrCTFtrEs7tyVxJ8OZ6EV96vmXmdHJHxgWRjnLYhgStjzR7qoCYQCAxNZ/GRXCi8czIhlk2q36WEJH1gaxj8ujvgWhqptW7MeVwwIuloMKiSY+iIUhTcWsi4WJ06yTprk1IrASwy1jyrP3yYMCLV3Ys1n8BQOom1ZW+FAMofbdiTx3L4MUmrl32r7kR7iOTEJFy+L4B0LwoiSs4JPttG0jNt2JPDk3gwSNcCB1hzyU7msh9oZQcjnyyo+6YKG3kYBEMYUHwQtG6LeimB0WNRnUhRf9Wo0Q9GygYmzYoXLDM1e+pmdFNlJsaEPr6OTewAHdF9kGr+0J9aWcEAv0l8OpfCD7cmavqj1/Uuv0+VdAfzLUVGsmxkyumc5GgqN2OmJPWl8fUuiru08ZmoQH1sdwbHTQ424ZT5nBQrkAaGPAIESIRRHMFj6IuTzH2gwq4OEwhpCceplBoQKeqY+u3r+qcEWhPp0ZFVnaSAc0P0omeXNoxWuWUXLChG0Yw6kg8kcPvXnSQxNljcddAYlUKrpjiAwkgL2JHMQNX3KbOS0eM2KKKZFPH+0RXTCR/4YF46XVhvdJd3rvKgEMnzsS8o4nCyOajAeS/tdsCyMS5ZHQRrx5p0CeUDoHVXCHPURDMZlBvX3FLCYT5CUP8YcEJRfFydaKsmHoB8CRfkQTMZGE/khsAWBLQjePdkewsHlK6nwUns5JOo7+oH+FG7dliwK7dN+T680CvH7HwvCOG9hGPNiATFxUmz8rvEcftqXwosHM5Y+CxQG+YW1Mayd7r0V4VdDKfzfzUnTMU5g2NMVwPuWhHHW7BCmijAMWbTrz4ezuKs3ia1lIh1WTwngfx0dw5qpQe+eIb4yFEA4hEcJELRUy5oVIWAIc8wDgwIIRZO/3TKDbsmCjivyQ2BAaNhI9By/2YLQsL61PnED4cAqWoFuhpIg0bJCu4Uy6juCJvpP/DmOzaPmX9UzI8oa+3kmvgSaw99tO1P43cEM0ianoFfyh1ZF8b4lEU9DAunePv3nCWy0aOeizgCuPTqKE2aUggxFPbxyJIPvbE9i+1jeDlU0nqMB4JNrYnjbgjB8GrzhwYPt/iUFILx6CL/qGy2KYijKpmiVOMm4zFDkmyDwwQARBQuFpaMiWxDqOggYEOoqZxOczAM4oEG2tCuAi6nwUpsuK2gjYyiexVV/iJtO7rTPPywK46Oro+iwMJ0TJPzpUAbf3pZE34Q5ZJwzO4Tr18Ysz+HGKN0dz+HqP8SRNEl2QOPhQysjuGBZ1HKJiY57dCiNO3elMJI2D4t89+IwPrgyii4mBDe61PQaBAjfefUgHu0dQ94HVUz8BSsBAjSdm2RWNEYzlACCAglFiZXs/BAYEOo6FjwHhPdzquW6dmjZkzmAA7VCQvFpjMfp39fq75QfKSli85ssi2+AFSKUkQsvkS4vHEzj319JmHYTMcEtJ3di7fTyZvOJjIybNyfw/P6M8tVm2JZ3BvDNUzs9DQWkZZB/e2XStJ3kN/DD0ztF2uhy2/axrHBwfH3EHITWzwzi88d1gKwuvHmjAAHCrQIQlCUGbTJXQhZ1UFAUrUD9brAOqL8v+Bso7THWddCWJpyEOrZCFMP0QOZtd547/WlvetcHmRQZEFzqegdwYGrMdQAHKhpYFl4iywEXXlL6mZIifWOr+bp8dwi496xudNvkMqAuuWNnEj8bSJmGDs6KBnD76Z2e5kR4ZDCFm7eYt3NJZ0AAQsTGQ5VCJL+6KYHfHMhn+S96WFZ2B/DFEzuEnwZv3iggAOGVA3hURDGokzr5HhiXFUoAQZn+C9Ucy+RDELsaKkLmS0mrcGjih6DGUxQL02ROigwIbEFo/JPtARxQo8gD/8oVMZzOJZvzffyzvhS+u9184pwaAn56Trft0gB1Jznx3duXMg0fnBkJ4MdneAsIP+tP4rvbUqZje1lnAD84vRNhG0AYJ0DYnBBZJs22ZZ0SvnSSvSWi8Q9Y+16hAAiqk6K2JGBcVjBaFKyyKhYtO6gQoY9k0GBBb10o7KYSimqdKK3GUJJt0c89R1EMDAgMCI0do27AgTAhFIc0kjc9hTK2Y+Glch26YXcKX95kDgi0lP690zqxorv8EkMqJ+OWzUk8tTed/2rTX5PKZX9rvbdLDI8OpfBViwgGCtu8+8wuzCBPwzIbZWAkK8Rfj5hnWDp2agA3nNCBOTbnaewD1t5nzwOCFuZoSJRU5HugQYIGDyWRC8boBk1bcz+E/LkZEBo2CD1fvOMlhob1bbHJ3+IyNS8rWMABFV5q51BGq17dOJzBx/88aRriSMdcsDSMq1fGELGYOwnDNg5n8fWtCeHhb7adMzuI69d22FoiGjjy8KfDaVz314RlKOdnjo7inQsjxvT5+VuiaA8CoB/tSOFQytxJ8W/nhvDJo2OiFDZv3ihgBghivi63zGAABMUooNZsKAp/ZEBgCwJbEBrzZHtgOaDXNBXVoVDGM+e0b56Dch06msqJKIbDFpPe3JiEjx8VxemzqHJh8cRHAQH7EjmxvEBFj8zqN9AR16wI4/xlUVsTfmMGnnLWg4kcrvlDHKMWhZkoj8HnjomJktX5HPzqDWVzMjaN5vCjnUm8fCRrChkkzVU9Ebx/aUSUvObNGwUIEL798n48psukKFwLbQBB+eg3Wgx0eRMEMNQKCM1d8pmXGACwBaEBD7YbcGCIVqBW9HRJuJBCGWe3Z4ZEJz1Jkzytqz++x3xdnSa+1d0BvGdJGCdND4qvY3pXTmaArWNZPLsvIxIljZkfjlkRCdcfG8VJHqdbpnb+98YEnrXwH6DllDNnBfFPi8NiSaUzpBi8KKSRoOCpfRm8ciRruoRCOlMyqX9dQ86vobbMxulkrLmxj2ZBeKx3DBlCOS0aQQUExTqgz5wogcIeFUAwOCaqYY4Fx8XaAIGOLsq6qNyMG7LU5RoMCAwIdRlIRSfxCg5EKGMEp84K23qn17/RzXXGl49k8O+vJhE3i1EEROZEmugpmRCF8NG/h1My9iRkYUEoV9xpQUzCZ4+J4niTBERuqpTJySJXw8NDFiQDiEROCzsCoHumKpQEFbScMBTP4WCZdMv0in/T3CA+vCrKEQxudqrJtUoAwRiZoItmEFaFcvkQyhRuMsuFYOeDwIBQ++DwHKfYglB7J+bP4BEcaMsKp84KMRw46E7KY/DNrUlR4bDcRg+ntspAk6f5SnzxGQgmjpsWxHVHR7Gw05vwP4KDXwym8JPeNCbKN1H9kiy004KZiho5KyrhQyvCeMv8iIAn3rxToAgQRLEm5Ss9nyjJLNxRsyhUEMlQN0BoIisCWxDYglC/J9sNOKC7NYlW+CAVXppNPgf1a049zkSTKmXko1smk3Y4aJo6pR6XqugcNNFvGsniS28kMDTpZNqv6PRi51XdAXzpxBgoJ4KbG8HBI0Mp3L7LGRxUem/Uj2+dH8JHVkU9zfNQ6X236v4CEF7eX8ik6BUgiIlfVVm3jFCyxMCAUNFQ9PyVzhaEivrLfGeP4GBulPIcRHHW3DCCHq/tkQRUPZBM1BtHsiAz/q5xGZRsh4LkKHvf/BhwzLQgTpkREuZ7Mmt7laWXQhWf3pvG7TvTwmGxEZhw3NQA/vWYKJZ0Bl2BN9L/yT1p3N2XFksE9d7IWnD8tCA+dlQEK21CQSu9NlXJpPtPZGWx9BPPKBYbGjedIQmxoPL3kLu8VWkzXN+/UYCgzOOao6Ia5qhN7lqkg1WyJAaEuo0DBoS6SenRiTyCg3zhpTnkJObtMKKX+o7xHH57IINf789gb6L8hEtx+OtmBEFhcifNCIISC3nRBFpqeGJPGg8OpoV/gUnZgpoGFVl0yNGR6h6smhJsqDme2vLM3jR+2p8W+td7o0jGE2YEcfWKCI6pYwXHZFbG7skcNo/l8PpwFltGs9iXAJQgE1mEm1KehVXdEk6cEcJRUwJY3BnwNIS03trWcj4rQCgbyWBcYlAn/iIfhVoAQWclYAtCLb3LqZZrU8/roz2AA1F4qVPCxT20rOA9HIylZTy3L40NezICEiyi6kp6itoxIyKBcgZQgSTypPdiiSSekfG7Qxk8vjuDV0eylkWcqh1q5Ah48owgLlseEaWRG7FmT8s4T+xO42f9CujUc6N+otBPinh495KwsIbUC0f3J3P4zf4MXjiQFREicfN8TPnmkJa0dHPOnBDOnh0SoODFmKmnvrWeqywgaOWdtcJN+eqNulTMOitAHhA0YNCFOgqfBqcWBAaEWrs1f3y9nrWqb+h9nAehOu0cwAF9R5e8rh3WVrAsvNSlRCuc5oP0yfT1d3dvChv2ZnCoSpM2fSGunRYQVQHXTAl6YkkgxzyqzPiXIxm8eCCLbWNZTFhMVrQkQhMmuRYMxmVYFDosGlPURrIkUBlp+vqu56RGCY1+RXDQl8Z+h30wNSxhSaeEneM501TRdPMEMrSERRaeM2YFcdKMUN18DugR2DmRE2PnL0eyYhmqkq0rBKybHsT7loRx3PSQZ8tUldxzo/bV8iAUV3MshDbmQxZ1uRHyoZBa1IIuPXNpESeNC3SAoAGEQgyF0MUWq8dATooz2r1YEwHCRFqe1qgB3JLndQgHJW13CAcCK0zyHFAKXyq8dOrMECKN+BStoLOysgIH9w/U7gxHE+bRUwP492NjmG9TYbCCW6x4Vwpf3J/IYTCeE5DQF89hOCmLio2xENW2IFN3ED1dAQQg447eNH5/yOazV70LAguKbvjYamW5oR4bOSQ+NJjCPX0ZDDucZAkO/nllBGunBTEQz4kvd/pzJAVQn0aCwIJYAFSIaeWUgGjz1HCgbpYPQoGto1l8bUtSAIqTqAkzrUhPWm7451VRoWs9oasefePWOQqAoK/mWAwI+cJNlEGxXE0GLQxSX3tBq8WktyDoLAR2oY7NXNExzIAAMCBU+Ch7BAdUeOkKdVkh5PHbkF7yvzuYxn+9niybE6ASZek9dPbsIP59LaU59tawRr4INHHRhCmSKav5Z8jXgyYm7fYOJ3MiEuIvR8xTLhvbT8cRXPx/x0cxnxwxatjIckBwQKGM4w5CGelSGhy8Zb4SDmvZTgA0xuh+690TBGD/9XpCZGqszG5QKhbNdWu6A/jP42OY06YVJSsCBEP4Yx4ctNwJDAhFg4wBAQwIFb2j3YADMSGZFF5aSYWXvPc5oNujifELryawyaIWAe0jwhoDShZCWZbF2r6dfwLNmZ9eE8Vb5ofrPjFV1M8V7DyWkvHfb0ziT0ecfw0v7QzghrVRLOuqbkmFvPx/OZTGvX1pR+Z5muSnRyRcvjyMdywII+qR9YmcWX+wPYVH96TrBpbUVectCOIzR3fUzcpRQfd7vmulgGCaI6EcIAhrgfKfanIhsAWhtiFSb0Cv+G7YguBQMo/ggNaBr1gR9U3hJZKB4uxv20lfrqXfgAQGlJ1v/cyAWLemiYmAgioC/vlIFkNx6wgHehhOmRnE9cfGxHHNsu2ZzOHWbUn86XDWtD6DWTuOnRrEv6yOYHWFjouk+eN7FJ8DqyJK+uuRipQWmdbr/2FhWIQMerHRSPnjoYzI7ki+G1Ybscv0sCSsHRTSSMs+IylZ1JSwijKhCIsbT4xh3cyQF03z9Jr1BwQzGGBA8KqTvXlada1lQHDQ9R7BATmSXbqcCi/5w3JASpFD2Vc3JfDioWzJC5tM0qfNVJzx1kwhD/PC8CaWeOVIBj/pTeG1YWvzMjkAfmJ1VFhLmmWj6a5vPIs7e1PCJyHhwC2BJsITpgVxJYUNTgs6crSjUMYNu9PC7+OAQ4dEynp4/pIw/n5hGF0ewQH1I4HN7TtTwqGSrElmG93fqTODYqlp9dQAuoOSqA1BeTV+e0ABTCufBYqy+MLaWNsVjqorIKhRD6XWAgYEr95FDAheKe/0um7AgYlD4vIuSTgk+q3wEr2sb1YdzIwSUvjlp4+OiYnPLK8BTaTbx5QMhr0T5l+RlBDn/YvDwmrikSXc6cgo2o++bneNZ3FXbwq/O5R1ZEKnsD3SikIgj5tePgSSfA4oX8PPK4CDKSEJl/WEcd4Cb+GAhCJnSEpvvXHEnA4oKuQfF4XxgaVhzDZknyRtqT7EPX0pPLU3o/iFGDYqqkWZK4+uY46GqgaCywcxIDROcPZBYB+E8qPLIzigErwX+rDwEk3pT+1N4wc7UiVhjRQE9Z7FYWE9IPOw1UbneGQwhW9uTZm+6MkK8TdzQ/jEUdGy52nca6H6M9NE1jeRxY93poSFxYmHPklFEQUfXBkRk5sZWFHWx58PpPDAQAZHLMpUm02YdM6/mxfyPKkQ6fKbAxl8Y2vS8v4pVwSV2V7aZZpaRzTvQCKH/7MxgddMIINCSa9ZEcEHlkaq78AmPNIaEMjDVC3nXFKPwfBzY4GnEn8DnQVB/LUQ2lgUxaDspmzGbIt6bb3IilZF3zIgMCBYDxuP4EAsK/TE4MfCS/Sif2AghZ9Qnn/D7Edf/h9bHRVOcHZf/r3jWVz3SsIyHTCZmclZ0cuQxyreJ+IQGjZ7J7O4ZUsSLzmMbiC9KAfEtUdHsay7OJcwWQ5+1pcSGRLtEglp90wprD+yKoK3zAuLio1eb7Sk8PBgCt/bkTKFJmr/1T0RvHdJBFGb4A5Kj33jpmTJ8had463zQrjumKgayud1q925vhUg6PMfUHnn/ERuVsjJChDyMFA9IKhHFovBgOB4cPASg2OpXNzRDTjQZhPdn3OiwDUiWiHiy7hukrdjswAAIABJREFUAoR7+1Ii1z95pOs3Sl5DX/00KdlFKdKX4Bdem8TWMfNlhhOnB/GpNeTl74PZrcphF09TdIPiq+F0W9IRwE0nFXJBEBzc3095DiqDA8pz8Lb5/oADajvVWLi3N4W7+tKmUhDQfOqoKP5mXsg2eoUsNP/610SJgya9SE+bFcQNa2OeRWk47ed67mcEBGVOV2Jx8zkPnAACHUdhjmqeBOVYzVpgAgjq7+wsCAwItfU2A0Jt+tX/aA/h4KoVMZw9x36CrX+jnZ2RAIHS+d7dlyrJwEce5x/sieCfFodF/vxyG3nff3FjEq8Mm0+eFMnwqaMiIhqimbfhlIxvbUvihYPOfBKorau7A/jXo6MiW+MTeyl9srNlBXqRzIxIuHAZ+Rx4v6yg7zdyriSopLFjtk0NA588Koo3z7UHBKrb8LlXSqtwUvvXzyRAiLaVoyK9rr5N1Rz7lERJRYCgZTkU+Q0KyZNKSkErv2VAMAxOXmLgJYbiIeERHIjCS8ujONtH0QpmL3KSh7zQqZQweZcbt7NmB/HRVRGRfa/ctmM8i//9ehJ7TEot04v+nDlBMWFQrYZm32hCu2NXGi8czFimNda3kawvx0wN4NipATy3P+uoKqNWL4F8QP5+QcjTaAWz/iJr030DaaGD2UZ+GOQvQU6KdnC5eTSLz72awJjhVKSbiGQ4Liryb7TLlq/FIABBaXfegqABgqEmgz6bYr7GggEQ8uexquio7KAsXah/VzmjIL2VHwIvMTgenp6PZA5zVPvKAzigzl9K0QrLKFrBv5YD/Wj+/cEMbt2ewpDJ5E5hapctC+Fdi8OIWbykqbgThQM+NJQxjWunNfN/XBgSFRBb4UVPGNU/kcNP+9L4jUNIoHFB71Cn1SUpz8Ely8J423x/WQ60cUOlnB/dncZ3dqQsQxzPnB3Ex2zgkrT8aZ+Sg8OIpxTB+c4FIXx8TdR2mcLx27kJdiwUaxqFklBTXVqgJQYjINC/y6RbLiwx6M6jA4QiaKgFEPRA4WON2YKgWhDG270WgwM4EMWTjIPZYW0Fq8JLPV1kEo7itFkhkdq2GTb6Iv7ypqSpJzndPyV2etfCEN65KAwKPdM20o5y/j/Qn8ZzB7KgKopmG1kN/ueKMN62oHmyKdr1Gw2TfhGml8avD2QchUDanVP7PS0rUAnmv50b9K1pnXqawPIbW1OWBaXIh4XyNbx/Sdi0HXQOKgX9328kTeGUIiM/vjqC8xaGnUrXEvtpgPCrXgUQ8lBgAATNaqBYF8jCp0Qi5K0JRRYE3Xl0vghKQkVdBEO+2FMhaqGIzvIWBAU4irYmsCIQIMzkYk3jw20NCA7gwDT3n0M4sCq8JPIcLItivQ8KL1XypqQCQd/fkcIvd1tPdN0hZS395JlBLO4IIAsZu8ZlUblv+3jO8iuSXiFHTwng346L2i5TVHLPftiXJjjKuPijnSmxdFCPbVZEiVagpSk703w9rlfLOciK8q1tKZHsyGqjDIpvnRfEe5aEBWhqibYozJPqXdy2M4Vd4+ZJtkiLm9fFsKizuf1WKtW4yEnRASAIKCgHCPmvew0ezKCg8LOSJQY9C+ggoCTlMgOCo672/LORlhjaFhA8ggPyObiiJ4rTm8hyoB/NlCzp/2xMli0vTAOblgs0wwgFPZCpuVyBHprkqF7ABUv9GcXh6IkusxO1ndIGf3VTEr87XBskUCpqMsmfOyfki1BGO20o1JGqf5IvQrJMbStaKpgZlXCsqCQpCWsLlYbePiaLbIxW4+cd8wP4zNExBJtg4rHTqpLf1xMQ8haFCiIZ8j4Met0NuRAUZmALQiX9qu3LgFCNavU4xg04oPssKbwEXO3zaAU7eanK4Y92pHDfoLkfgd3xVr+n9Mw3nhDD1BZwTiynQSIj46bNSnSDk2RK+nNptRWuEssK/rcc6O+dsmjesjWFzXWo5Kg/Ly1PfOuUGJZ21lYhs9px6+VxloAgVgJ0CZF0ZZ7NLQgizlFXkMloQVCneX34o2ptsHRULGdByFsqvFSv/LV5iaFdfRA8hQOKViCHRM/ZsKYnk0L4vvhGEi8Pl9ZkqObE82MSPntMBCdMb54aDNW0UzuGckFQRsoXHNZu0Cy382ISLlgaxtvnh3zrc2ClC8HQY7uVaIYjJlEw1ehJvgeXLg/joqUR0yyU1ZyzmY4pBwj5KANDmKO+omM+34HwSSgGBGUOV30OFAcEIY2xqqMTQFDxolhan78DGRDaERA8ggPKkHjJMqUIUbPDgfaUk9Mh5dd/dcTar8DuZSsiOTolUY+AUiz7/J1h1xzHvydT+eBETuSU+O3BrKMQSAEHS8J4u8/yHDhuNCCcUyknwkNDlGyrkiNL9yU4oDFDiaGmtbjVyUopIyDkJ2Ja2ytJsVxIv1wc6ijiZgqAkP+615V4NgKCto9ZqGOBJfIpl00BwedWBAaEdgMEN+DAUHiJnitySLyoiUIZK3lt7xzP4ucDGWEuH7OITLA6H/kcHD89iHcvCokqfq0Q1liJdjRUdk3k8J3tSfz1iHWFS+2cH1wRwXsWN5/lwKgJ+WE8OJTGL4cyGK7SkkDLCuR/ceHSMBZ3WtdvqKQ/mnFfUR+ldwTff/0ghlPZAhRYAYJJqKM+ksHSDyEfZWXhvGiVD8FumcHHkMCA0E6A4AEc0NjXQhn9WFuhHi9EitU/mMzhdwezeHJvRkQp2HECQRMtKbxlXkhkz1vaGQBlYmzHLZkFvr09icf3ZMr6I5BmXz85huOmtcY6O2VXJKj8xWAKO8Zk08JdZuOB5ilKSX3egiDOnRvC3CiVFW/HkVNo83gqi6f6R3H7G4cQz8qKQ2CdAEGZv8ssMxiTIeV9FNT7M5gES5wVtWb40HTIgNAugOARHNCywmXLo1g/i5zJWvstlszJOJSQhen4kd0Zy1BGeh+QRYXSCS/rDKAjZPnKaIu3Pnnp37oticccAMI3T4nhmBYqZ0yRDYPxLJ7Zl8ETe7M4bFOpkhjyvYtDeMeCkAiDjdlVBWuLEaQ0MpHJ4en+MfzgjYOgOiAaICgTvOKsWFSbIT8h6/Mh6PbT/d4SEOjkmn+D0YJgscxgudTgQ0sCA0I7AIIbcECD2xCtMDsKfHAFFV5qjgyJ9XqXPr4nLRLilAtlO2F6AF8+MdZ2SwpmGrczIGh6HEzKuHlLEr+3KWwVCwD3nd3pu1TS9Xp2aj1POpvDht5R/PCNQ4pPi5qSs7iSYzk/BK1Yk94R0eiHoE7x+miGelkRfAYJDAitDggewQFVZbx6RWtEK1T60mJAqEwxBgRaopJxy9akWKYqtxEg3H92JzopWQJvpgrEMzk81juC+7aNCJ8EuVJHRZPSz2LeVi0FiqHAEM1gBwiGib+szdBHSw0MCK0MCB7BASVBomUFvxdeatT7lQGhMmUZEBgQKhsx9nuPprJ4rHcUD+8axSFyctHVZFCWCwxLDtoETz8vAQSdxUAcawIIOgCoOuRR3yyfQAIDQqsCgkdwoDkkntkkhZfsXzWV78GAUJlmDAgMCJWNGGd7jySz2NA3hgd3jeAIrfepjob68MYivwTho6B5Cuv8EvRZFYscECuMZjBZPrD1PvIYFBgQWhEQ3IADQygjjX2CAwplbKbCS85eNZXtxYBQmV4MCAwIlY0Y53uPpbJ4on8cP9l6BJMUWpSHBIsMi1q2RZNlhnxCJbesCFozPYQEBgTyCm6lWgwewIGW56AZCy85f9U435MBwblWtCcDAgNCZSOmsr3JJ+HZwXH84I0jSghkyRKDVnhJzaKoeDaq+RT0hZp0zor5VQbjz1TfBHGLhaqPZhUe8/O/k+LcHkECAcKsdq/m2DKA4AEc0CAnn4Mrl0fa3nKgPfBPUBTDtvIFeY6fRlEMUY5i0ABhewobnIQ5nhzD0VNbL2EEOSl+fWsKv3MSxXBWBzspVsYISMsynuibwG2bj2BCgwQzK4FW5VE3wRfSKpvVZlBDKPXLB3qHRf3ErvcrdZobwWO/BAaEVrEguAEHNFjNCi/1tK9Dotl7ys+AoK8E6Bc/eGFBcAwIURzdQnkQtPHDgFDhjF/F7pQn4bH+CdyzfUTNeGr0M9AVa9JZEZS5X3VsLKnDoFgKipYfdLCQD6/MWxx0N94EkMCA0AqAwHBQxeuicYf4CRAICBJZGaNpiFLBlL2P/LXCEtAZAqaEJEwJS+gMSp5l42NAUJYY2ILQuGdSO/N4miBhHA/1juFwUi2drSVQKnJGtHFW1CBAjWhwBAhGSDBZNvCb0yIDQrMDgvgktKoQrzwWphXkjcfpT6EDjvyxOssBPRNLOiRcsjyCM2e3TuGler2e/AIII2kZW8Zy2DSaxZbRHIYmFVAgc2tIIihQloeOmhLAMVMD4st8TtR9uwIDAgNCvZ49J+cZSeWwoX8cj/SN45Aa3aBfRiiKbND5EeRLRJtUc8xbGQxLDSUhj00GCQwIeUDANCeDy1f72FoOzNBANvCE4d95UFCPzV9D2U+CjJ6ugCgQc0YbhzKWGwdeAwKl731tOItnD2Tw6nAO+xJy2RoH9K00Myph7bQA3jQ7iNNnBRF1MYWvHwGBHgPyet89KWN3IocjKaUKI9XL6A5JoKqSizskzIzUp4aGlxaErCxjLA1RNIosTNR2SuE8IyxhalhCuPVcPjCayuHxgQncv3MMo5SWOW9FoOgG/bKBzmFRq8egAYKAB9WJUbwQNIdFlQK086i/s3RUNLUkmK1JGN46LjguKoCQftud505/2qu5z/1PFkNLFSfFJgMEWziwshwYrA1F4YoFYcRrwiKUkeCgVQsv1eMh8BIQyEv7yb1ZPLY7jd64DCok5XSj983ciFJA6r1LQphO6xAubH4DhMmsjBcPZvHS4SwG4rKYOOMZiraQQdxENUWmhIG5UUlYXc6dE8DKLs0DvjrBvAAEWnp6fSSHPx/Ooj8uY4SWn9REjgQFU0LAoo4AKC34SdODopy0OyOiOg0rPYqWG54ajOPOraOIizQJWtSBvjaDARDyFgIdDOhrOlhZF/J1GtS7NE7u1Sw36K0VlTbe4f4MCM1oQfAIDpTCS2Gsn9n6hZccPj+mu3kFCAQHjwxl8IvBDI6kTBeWHDWL/BH+bm4QV/SEMSPS+CnBL4CQk2W8NpzDHb0KXJHFoFxVTlImGoQAKdLr/KVhYV2oZnMTEDI5GS8P53D/QBo7JxSrAVmdjCxJLSGLCY2HZZ0S/mFRCOfObq2S5ARJzw5N4Aebx5QQSH0Ug764U9nsisVWBGXe1qo/FsZDYbmheSCBAaHZAMENOKDxa4hWmBsFrllBPgftVXipmpe9F4CQlYHn92Xw3Z1pAQe1bmRifv/iEC5aGmr4coMfACGdk/Ho7gzu7EsLP41qthOmBfDpNREs7iBrQmVncAsQyFH1gYE0HhrKYDxT2T2S9eQtc4P42KoIulyyLlV2h9XtTX3/xMAEbtsyhsmcNtnrrQhiyhfpmYudEdWcB1qVWp0loTipkpYbQTcotL/63JLAgNBMgOARHFDhpat6IjhnDjskOnkFuQ0IhAM7x3P42paUcEqs10YOjB9ZGRb5LRrpkuA1IJClgEpN/7Q/I5YTqt1onjhuagD/vDKM1VOCFWnWaECgVtE1ftafFvkmylUatWv/uhkBfHJ1BIs6Ay2z5EBjYMPABB7YNSHGgDIKKlxq0C0/FFkRdEsBRYs09YSESonUrpPV3zMgNAsgeAQHC2LAlT0creDweRK7uQ0IyayMn/Sl8bP+jGU8C03wXSGgIyCBlpnH0kq4Y7mN3l9/OzeI/7kygtkNjG7wEhDItP6bAxncviuNPYnq4UDTkSBh/YwAPrgiIpx5nb63Gw0I5Ij30/40Hh6qDQ6ondTG02YG8eGVYSzubB0PRkrLvGEgjof74zgslug0/wN1ySAf0WDInmjhnJiHBIMzY8MgQbtOJS8rm30ZEAgQfjM+PJ7xs5OiMfKgtFfNV5zLRCzo3oVWoYzLuyRcuCzMoYwVPnBuA8JAPIfPvZLEvmTpBEevOPIjoEmLMhDSejmtqw/GZbw6ksXmsRwSZSoM0/7XHRPB+hnBhuVJ8AoQSK3+iRy+sS0loj1qxwNloEQDwDsXhHDJsrBw7HOyNRoQNuxJ4/s7MmqCICd3VH6fjiDwroW0BBUWeTRaZaMQyCcG4niwdwJHhDXJJJmSqWVBxDCYRzVoFgQ1qkGxTaia5a0IqsVCE1K3r15bR26iTqnUQaeFAxzF4G9AcMNyYIhWoLGpVGVUzMshbY3NwYDiXdy3IDw0lMa3t6VNJzgKVbtkWQjnzgkJUNC6kr6c++M5YW5+el9WJFEy22gsvH9JSCwxRRr0segVINDa8wMDGdzZm4bVygK1n6wnq6YEMDsigUICKWx0+7gMyjNhtc2KSPjMmghOnekMrBoJCHTu615JiEgFq43m+EUdElZ0B9AdouRawMCkLJaurCxNtP+HV0ZEWGwrvSLG0jk8ORDH3TsmhONiKSSoPgVa5Ud9giVtns8XfdKsD/qaDkovlECCBhJFRFAKX25CgrAgBNs9zNGvFgQP4IDGJnksX0LRCrM4WqEa4HHTgkBD5PpXE3jpiPl6wflLQrhsWRgdJt719OrbN5nDj3vTeH5/1tJjf82UAG48MSqyLjZi8woQDidz+OyrSeyaMJ84CYho8vuHBSEs6QwgFgRIZVqvfmMkh/sH09gxbg1W/2N+EP+yOiqOs9saBQiyLOOu3jTu7LNefqJ+PW9BEH8zJ4RZUSXvAc2LI+kcXjiYw4OD5r4ZtGz1zgUU7RLBtBayIlBfUR8/OxTHj7aOI04WtnxEg86JMb+0UDADFJwT9fuZQ4LpUoPPIIEBQV1iGPPbEoMbcECD0RCtsLBDcUhky4HdK936924CAoVpXf77BA6bfM1SCN4P18ewoMP605+mtz8dzuLb21Ni2cFso5TMdJ65scaYELwChN8fyuI/Xk+a5oqgyY/g4GOrI5ijs7xo+lCo4G8OZPHDXWlhUTDbyOLwrZOjmO1At0YBAk10H3ppEvuS5uOVIOjipSG8f0lEhGwaEZAsSz8fTAtLy6TJUhRZGv/XmkhL1sdI5yhPQgI/2EIhkOaQkK+1YGkx0EwKzQkJBAiz2YIwPuwrQPAIDiiU8eoVEZzN0QrV04HLTopHkjIu/sOkiGM3bsdODeCWdVEEbNYkyVR+46aUAAWzqY6+KL9xchSrux18ClehnFeA8K1tKRHuZ7ZREqR/OzaC46ZZt5kSJ/1gRxqP7smIktXGjczuXzyelhlCtqo0ChD+eiSDa19JWV6foi5uOpGsHNbWIcomSVpR4ijj+CDAIED4m7mNjXSxFbBBOxCAk+PiPTsmDBkXdVYDzXnRCAnCx7HIyaA4TFJf9VG7f303+CAEkgHBbxYEB3AgPvyNj6rZcXnrQOHpMXNIpN8SHFy1gkMZ6/GecdOCQLnkL/1DwhQQTp0RwJdOjNk2ieDilq0pPLMvY7rMQMlyvrEuiqOmtA4gUIbJf305gVdHzJdmzp4dxBeOjdj63/zlcBY3bk4Jr3ez7aOrwnjv4rBtHzQKEChy4Yc7zRM70Fx07dFhvH1++fsjreg8FAaqrMkXb5ctD+GCJeGykGErgI93oIyLGwYm8WCfFt1gyLpYlHpZjXzIJ0sqk0RJGBfK5EjQ/T4vTzUZF2twWmRAaEJAqDccUOGly3uotgLnOajHe8pNQBhJybjo95OmX7AUhfLtk2O2iY7onf/tbSls2JsxBQ36Srz1lBiWd7XOEgM5KH7wpYQoYGW2XbYsJNbW7bYDyRyufTmJQYvzXLosJMKE7bZGAAJ9H9yyNYlH95iHqZDR4PunxrDMQaji8/sz+O6OtMilYNz+foESClttFkk7bfzw+1GChH4KgZzEoZRckjCpeKlBzOy6fUzqNegnfx9DAgOCnwDBgfWgnnCQj1ZYGsaZc0Itk/TE6xfKk3sz+Ma2dNk8A8dPC+DLJ0ZRq98fff1f+ccE9pu8uGlp4EvHR3Di9PJf/pR58eatafzhcNZ0PZ488m89JYqZDkP2KtWfzPPf2Z4WgGLygVr4eALwzZOjIKfJWje65jV/TGCviW50bgKEy5c7+/K/9hVrQHB6Hpp0vr41jd8dKhNzSkWUAsDPzuwQpbrtNvryJ+vGc/utAeF76wkQ7J1P/9+BrCUgvHVeEB9dFRG1G1p5I0h4YnAS9++KYzRj8CkQMQmqjiJdsxUkaBEQWphj8Z8NdVyswpLAgOAXQGg0HJiEMtIXJsUxr58VFAVoeKuPAk/syeCb2+0B4aYTI6AHsJaNuvU/NybxwiFzU/kZMwP4xFERyzLOtI5OxZ3u6suILyOzjXIofOG4iMjJ34itEkD4xrr6OMRlZBmf+EsK28bNdTtndgD/dkxU1CIot/31SBY3bU5bavcvq0L4p0UOQEMFBHKcLLcpgBBDpwOypNoSX9mcxtMWgEC9ed2aMN46v/zMTqBx34CyxDBhcnvnzQ/iQyvDDYtyacSYq/actNzw9O5J3LktbijwpAJBkT+Cu5DQiPBHBgQ/AEI1cEBjz3hcBT4HSzslXCoKLzEcVPuysDrOCSCQ/v/7uAiWOjDv2t0f5TL42lbzdWZK2vPmuUER6jg/VjzBk/XhxUNZ3LErLUzkZnhA/HLN8hDetzhsO1na3afV770ABLqXL25KifBOs21eVMLnyUlxqjUh0H3/kJwU91o7Kf738RGcMsPed+NgAwCB2vW9HSk8MGgNHVQ/ghwpyzkp7knkRJ6Nlw7nRJincbtoaVB8aHQ0CCCrHVeNOi6RzeHZ3Un8cMsE4jl1uUFfh6Gc06JgBoOfQv5nNj4JHjgtMiB4DQgewAF5aH9wheZz0KjHqH3P6wQQyGBz4vQAPr4qLGLsa9n2J3L49Msp02UG5RsGICB5x/wgTp4RFOZpWpJ4dl8Gz+7PmYavafdDE+V/HBfBUXUw6/sNEB7ZncE3t5mDFfXPmTOD+MRRYdOlFfqq/vWBDH64M2OawZLaSksyt54cwSyiNJutUYDw9L6MsHBYbbQMdcnSIC5YGkbIxJpFTokU4nj/QAYJEzogQ8anjwqLEuFtwgdCSvJheXJwEreRJYGqQOpLRWtJkIw/E/9We6JJIIEBweeAYPpdV4PlgODgyp4wzplD2c8aYzK2exm2+u+dAAJpQC/UM2YFcOWyMJZ2BarORkdfsuRlfm+/eRSCpjf1Nk189Ce962mSK7fRy//di4K4eFljzcdeWRAok+RnXk5ixGL+pARHVL3wnxYqCYSov0gyqoL458NZPDCYEU6OVjK+bV4Qn1hNX+f2I75RgLA3IePDf0qYLg1od0XZNi9YEhTF2AgeCWfIF4RSDT+1NyvCOK0qPy7uoDwIYREO2m5vkzg5Lg5O4oG+SQzT8ly9IEH3Xm5Y3QaH734GBC8BoRrrgRUc0NNurK9QkgRJwhXLqbYCw4H9K7v6PShc8JZt6bI1DrSz0yRMIXUXLg1hRQ2QQJMdOUa+NpKznfidtIxA4ugpVJkwhGOmNvbl7xUgUOKfW7cn8cRe6zoMBAWUUnhVt4SpYQnJLLBrIieyL9oVu3rv4hAuXxZClwN/gUYBAsXxf+7VFDaOlq/MRbUVyCeJIhoIaMbTEJVBCYCsjqQxQhB0dY+5lcXJOGv2fSgtM4VAPjKQKPihaKmX8/UWlHoOmvlAsTbYWBLMIKGCHAn18kdgQPAxINhaD4ocDwuPmjHXgSTLwlOZvgSVUMZmfyz9ff8bR3L4wutJjJnn4Cm5eZqEKGf/lctDWNltb442a30mB/zxcBa392bQN1Fb4SEaHgs6JOHJ/+Y5IZF6t5GbV4BAFpSXh7P42pa05TJBLe2mL3MKc/z7BVTPpPyZGgEIyZyMX++nbI8ZyzwNtbSPrJEf6gnhTXPb+50iCjwNUZ6EhFIu3OiPQCLrrAtF6ZjF75TBUfi57gVNKZ71thkrSGhQfgQGBJ8CQkVwoLMemMEBFWC5YGlIlGjlwku1vBKdHTuRkfHlzSm8aBFZYHYWggTySfjQijBWVQkJkxnF6ZCWGsiiUG11QnJmpPS7b5oTdPT160wV6728AgS6Iyp7/YvBDH4xlDVNAlRr28gPgUDrvAXl1+jrDQgEB8/uy4rIg911KGNt1IFyY7x1blAsV1IRsHbfyJLw1FACd+3QRTco075a5VEfztigHAkNgAQGBK8AwWZ5oSJAUGcCsyyJZDYkywFHK7j7Cusdz+HmrSlsGrNeozbeEVl2jpkawEdXhqt2CqQqfG+MZnFPXwavWGQJtFKCXmF0/cuXh4T3fjnP9nqq6SUg0KOzZ1LGHb1pUVuhTIHGqps8Jyrh6p4Q/q7Ml3Y9AYFCV5/dr8JBGR+JahukjBMJn1wdQU93oO18D6x0i2couiGB29UQyKJlBUeRDSpQaBO94U/T6o+adUL/p+4GbZcabHwRGBB8CAjVwEFR8mUVPhbFgCt6wmw5qPZNWMNxNPEcSORwT38GG/aaJyAyOz1BwlHdAVCKXpqsq9nIdD6alvHkvgweHMyCJh+7jQoLvWdREG9fEMLUUKEstN1x9fi9l4BA90/q0Fo71VWgZFHlkjVV016aUBd2SMKf44xZ5gnJ6gUIVLX7twcyuG1XRhSRsu/5yltEbbn+GILYxvqmVH5n3h+RlmU8PZTAD7cq0Q0aJBQm94I/QulSg+KnUM+lBgaEOoyJ9/7G5WJNtVgPSpwUFQGM1gNReKknjLPY56AOI6T6UxxJKZDw2J6saTpkszPTa+LYaQH884qwyBpYi8/I7smcKMRElgyrjZYUPnNUGCfN8OaF7zUgaLqMZWTc25cWfTWZs4/yqHRUrO6WRJ8eP52chIuPrgcgEBz84VAG396ewQGLDJGV3rO2P90u+aKQ4+pn1oSxqEyF0Gqv0SrHkWMoZVy8Z+ckRkUKCjW+1QsoAAAgAElEQVR7omZFED8ywkCF6ZiNqzp6S4DBKlALJLAFAcB7fAQI1VgPSuFAwlXLQxzK6JM3zv6EjHsH0mJNWJSNdbDRM37y9IBIcHT01EDVMeZUROjGTUn8ddgaEKgWx7VHR6q2WDhoTtld/AIIdJNZWRaRII/uzmD7hCzC1yjaQW9VoHczrcFTdML0MIUDApSu2m6j49ZND+CqnpD4+tZDQq2AoMBBVqSs3ucQDjqDSqgthTBa3T3dI+1HEHnu7CD+YWFIRHPwVl4BUeBpMIGH+pVS7LI+FbNNfoQia0MeJtRy01U4LNYCCJQbY267l3tuFUCgaAWKS6Yc8hRfz3kO/PMao3VuSlf7zP5s2cRE+jsWyZSmBYQnPH11VvNaZkCobgzQV+COiRw2j+YwEJdFrgRKjkPvdsoYSH4FK7skrJ4SwOsjOdzdr5j07TaakE+bGRDWPX3xq1oAgXwOXjyYxfd3OrccTA9LoCJLU0PA5jFZWBzIgkJhnLRFghCpk+fGJKzplkQ2SEroZReNYdf+dvq9KPA0mNCFQOoiEspGNZg5NtaWZbEsJJTxQ2BAcNuCUOnygqGGQv4BMzgmEhz0dEm4kAovzSo1YbbTg+nXtlLSGoIEMmE7XecWyw1TA7imJ4S1VUACA0Jto4FyAGRyihWBUlNTf1DOgGhQSZxEG4WY/vZgBrfvchYxQMedPSuAD68q1MioFhAoF8Nz+zO4uy8DGl9ONoo6eO+iIP5xYUg4olLUDQEChehN0sCUJZELYXpEASGq0ljLMpeTe2rVfQgSnhxK4L7ehCjwJAwCVvUadLkRTK0IleRGqDSiwQISGBB8BAi2lRotai3QuFpBcLAkhPUzA1x4ycdvGyqXe99gGg8POXdcpP4l+PvwyjDWOcjrr28+A4I7g4Hm1RcOZPDj3gwGLEo/6++EciedNTuIj61SkgxVAwhk5Xh6Xxb3D2ZEJIYTPKBrkTMq5WbgpQJ3xsZ4RsbTuxO4c8ekWGLMA0J++UD1UdASKKmTdaljo/tWBAaEJgYE7ZVAa8gUa30qw4E7T3yNV6HYezJJPzRUvryx8TIUsvqhnjBOneV8uYEBocbOquBw8qUgJ0GKIKCoCLuNIOHNc4L42OqwyMpI5Z6dVnMMBiDg4N6+jKirYX81CCB436Ig3rUwhCnsR2DXPXX9PcHcM7sTuG17Qqnd4KDqY72tCNX4IjAguAkIZZYXqrUeaNnMzuBlhbo+0I0+2Xhaxo/70vjlbueWBLonyoj5kZUhnDzTPFzOeN8MCI3uyeLzkyXh1/szInshTdx2Gzk7vnMBmfvD+N5OZ4Bw9xkx/PkIOSRmRL0EJxstGbx3UUgkwKLlEd7cV4C66qnBSfxwW0JEyeQzLpqlYfaJFYEBoYkBYVYEuKYniHO4toL7T3sdrngoKePe/jSeqiS6AcCqKRKuXh7CSdPtM2M2ByDIYrLbsLe8RYWmtW+si+DoqQ6qH9Whf6o9BfkskDOq5hdgN4WTM+Cb5wbQH5fx6nD5mglUGJJyZNzR6zx9MsHBexaGcMkyhoNq+7Rex8UzMjYMJXB/LxUJ0xd4EusNalVI9Wr6NMt5p0Z9OKS6XKEcqmxGX4JKQh5N/BAYEJoBEExqLnQGZVyzPIS3zmOHxHo9vF6ch5zDqCogQYJVxTzjfdG74OgpknjhU/nmcrWABCBsTuHlMmGOFPly7ZrqEzPVqpsIc9yRxuN7yztvUru/fhIBQnUJpGq9z0qOJ8fFp/dncE9/1pHzIDk+EkhQJsxyG2lAToMUceBko6RXZKG4eGmQLQdOBHNhH3JcJEB4bCilWBLyE3sNvggOazRUGs3AgOBHQHBQsfEtcyV8bCUV0mFzoQvPdEMvQZDw88EMHtubtZ0gtBsRjqndkqgWePpMa0hkQGho15U9OUHC8wey+ElfBnscRhjU824pWuGfFgTxvsUMB/XUtR7n2jWexa1b4nhjOAtZbx2o0Ipgmn65TNIk1U5h3QSDFYEBwS1AqNb/wMR6QEnM/uPYENZO8/+XVD0epnY4By03/GK3khrZ4cehsCou6VSSYlmFtjIgeDt6qC9/dzCLH/U6c1ys191SJUmKViDrATsk1kvV+p2HcmrcvTOBhwdThbLh+uyKdiGPeauDyTKD7nclSw5amKVVUxgQSpVxJVFSHQFhUQdw49qwiFPmrXUUoPoJVFXwvoGMY0ig1i+iKJalQbx5bmnFQAYE78cH5U+g6AQqxT3oILqh1jueFVGiFd4+P8ihjLWK2cDjf70vLawI9NxbloPWOytWUsSp2tTLDAjNDQgU7XBUl4T/szaCzlADRy+f2hMFJjLAfYMZPDCQcVxZkDBxXkzClctKIYEBwZNuLLkoQcIfD2dFCGQjIWFKCLhgSQj/uDDoWjVOfyjcfHfx10NpfPWNuJKmW7fMIEmqZdhoRbAEBGXhoCjVarXLDAwI/gKESmsv0P49nRK+tDaMbo5lbr63goM7Hs3I+NlARoRA2jmt6U+3KCbhqp4gzpxFvinKbxgQHAju0i5UZfO3BxVLwm6HiY0quTWqmXD+4iA+sIR9kyrRzat9/3AgjVs2T2AkVRryKCo6GiITSnMnmCROMnNWrCSrIgOCB4BQx+UFAoRpIeDG48MiNzpvranAoWQO9w9m8WQF0Q2kxNJOxXGRanFEAhIDgs+Gh8iTcCCDO/uyjpIpOb19shy8f3EQ71/McOBUMy/3I1h8uD+Bu3YllNosRdaB0nBHxUaglYo27m/jhyAOLl6OdhrNwE6Kbjgp1hkQqKuvWBYUiU84iMHLx7yx16ZEOxTd8MRe51Ug6Y4os+Ylqk8CxVpzmGNj+6nSs2uQcEdvFrvrEN1APgfvXhjEexcHOaqp0s7waP/DyRxu3RzH7w6lIcvq5K0r4EQTuvgp/cdDPwQGBBUQRjOY1rCxUmdAoPtcGAWuWxMW1eR4804B6tqJrAyqsaCv+NcZlECJrMiRlL7kq90oBPIXQxlRu8FpdANda0FMwqXLgiKZ0le2cB6EavVv1HEECVSemWo39Mad5TQwuxcqpkQOiectCIoqk7z5XwGqvvncnhR+smtSvDeKrANmWRVVC0B9LQgafZjopbM2ECDM43LP48NeAIJj/wPd+0McI1Mub+Ck6QGRUa+nO1BVKWD/P0r+vUN6we+ayOEPh3LYOp4TpnwyFdLPqW8ohS6Fl5FfwEnTJZw0I4hpYdts6KYNJicmgoSfVxACSSeaHaGSvgH85UgOr49aT0KcKMmbcUZmZnJcpBDI3onKIYEsBx9YrEQrUPIk3vyvAIU3/uVQGnftnMSO8Sxy6pu7ePJXPvqMfgg1FW+q0g+BAcFDC0JZQDDJf0CDRgME+nsQMlZ1U7xzCKfMVL4g+DXR2JcEvcapct4juzP4/aGcyIWfyAlmM93ovd0VomqbARGXfsoMMgNXfo8U3fDzoQx+2l9ZCCQ5rhG0UDEgq40BofL+qNcRFN1AdRV+tKsySwLlOTh/SRDvmB9EF8NBvbqjYecRlsaMjGf3JPFI/yT2JHLI6q0FRf4FDgBBtSqoJKH4J2hbHR0VGRCaGBC0WSksUWRDACdMD2BBh1SYgLRJy2L2kkt+rh5QBCfFM58CKNpINMyKptdRrB3HzIhhYXfELG9Hwx7Kep+YvvheHc6KQjzbxp1V0NPfA+XRv2hpEBcsCaMaa3A8A/x0II0HKrQk2OnAgGCnUGN/T+OKkin9YFfGkU8CpWW+aElIOCWGali+amyr3D07vcte2T+B/fSQGLeiryblH/o3l7LMr/kBmM2y6s9KvsJ1qZFLrlm4TjIro38iiz8dTGM3mRk1XwM3AUEPFFpzrD4neYmhuDcpUZIvlhisJmaTJQZllBcm9Px0lf+Z+hiIFQn181H8Lk8NEICg/Uz8WC78TKYz6oBBPS+dS9lVO1b5ex4cxM81S4dyTkoH/al1c/C2pVOb9oVG6/8vHcriezudvcStXo/0bUDZ7a5cXl3JXVpuoERKGyp0XCz3umZAcHcyM7saWXme2JvBj3uzGC5ToZGmncuWEWRytIJex1xOxn+9OPD/t3ceYJIc5d3/d8/M5t3byznqgrLAQkKASEomWYASQgSbbJAIxhj82caAycZgwCSDTBBC4BMgiQySQMFkIaF4unynu9u9vbh7m3dnur/nrQ7T3dOhumd64tt+sG5nqmuq36ru+vUbcde+EcfHRqigOx2xwyHQUu87IwjszdGz+ROIWX1Z3oOW86Cimi8+7igDV1iio1/DdGC1NX8nSIMgNnbDUdG3/LO58UdqEBgQkt/kqQJCBR0UzS3cBQYWKPgBgq0hcABC8b3X3OBpc7fH6P2sCAiaDR5F2Cj2b4KH9R8HuDQDINBlkebgM9srk+SG7nd6+6PSu0nUw+TYdHPMAk8MCMmfD9U68+ERDZ/cRm+Zwf4IpIW66antnD7ZMykECB/87T786gkLEJwqdycUOLQF1hu0AxBsTYLjO9sXoAQMHJu82YfqSHhUrM7oAAe71gIDgux9VXOzedMDgunYaL/pW0o2UwtQAgj03q9ZRmsDGqiNrTkw+3MDgqVVsDQKRQ1HLgO840mNq0E4Mq3hI1tmQx39ZBe71a4/B7x+bQ4XLs4kMjdQCOT3qcDTYEH4QJRzsAahHOlV7lwZQOhQge+c144u9jtwCT4QEDwZBf0AQHRkawPE67rRt/MzR7ih/TZvf2Zs9rapoiQSwQMDrEGIddMwIFjiqrCJwU8zYGshHNAgPrNNDQ6zhdMkoesQWgTPZ0UzhdEzbAVD0QTRyIBA9uFv7p3Ft58gj2P/gxZwbw5Y1K6AkltSuCNt4GFhiaSxPGuOimvXZ7EqYcIrKvB0y0Aetx4ogEomJz1aHRBojikf/r5JDfsmdBybMZw66W19bs6odbG6WwVBXXGDSSrt4PMYEJLL1A0I7g3e6fjkCwguOBBk4AMH5ucmONhmAoMkRHuhPbDBwjQdqFbaZAM8ir4OkhoEa3dkE0PyxVHumc2qQSjZ+C0/AqELKJoTXO2MP2ytge2zYGkRvOYICy6c4OCBhFxGwTuetKAhfRAOTOr4x4dnMBSQ0IY2+ksWZ/CcRSrmt6lCGzBZ0LFrTMMPBgrCmTHoENnvVmZw4aLkRTVG88CPBgyfBNrokhytDAgEWXcdzuOPx3Uxx2N5XcAW+QTQ3BIkUE6Lhe1GWPHFi7NY1J4OKDAgJFm9xjlFQDhR7MS1YYebFox93a09sDdzO+rI1BR4+nUBQqCvgQESxT6tTj2+BVF5EGwAcWdTZB+E5Gsn8syGBwSxSTsdEYu+iL6aAdv50MefwGmO8MCAwIogLYIFFlbfDkigsD4ChItW9YLCZhrpoPwDX9vj/4ZOG8grVmZw+YosOjLuWim0wRyZ0fGFHbP4/TH/iAeSRHuGNqHyZEKx1ROUrjXhQYDwro05nNJX3jgS/rzYkL+0cxY/G9LExhx00Og+86QcNlUgORjB1K+PFvDNvQUMTumgcMMwvqLfzqrAPMo9sFzFJYuzYu4qeTxCPgjbjToNQQeZGL59XpuAFj6KEiDt5geFk+Ko8WEgHBgbdfD3Hu0BNRd7uVerYL/aG+YFO/NhETJ8nRGDzAvWmE1AKImqYA1C7ZZ7wwKCvSk7IwksE4Ehz1BACNMimD4I9vnmbwlfhFAtgmjoMjWQBuHtZ83HxSt7GyqKgTbejz6ex2+Pab5v50+eo+JDp2cDr4lmgjQJn9iWx+4EiXCqdUeQCv1dG7M4tS9BgoYKDDIOIHz6rBxOLnOcY7M6btqXx60D4UASdGmkVbhwkYqXr8qCMhlWaqsmDcKnZADhqVTJtVK/WoEJrIMuLA2CCxAcLyNu04JZCCnKtOCEA3MDd5kIPI6Mzt+wtRE2/MuaF7ymCFO4DAi1W2VNBQgWNNiuBI7QRkdoovFO6wlVDIxmMDd9EzhK/A7sEEiPj4KpRaA3r0YEBEpz/G9bZrFttPSNjp7P/7Api+csDH+NpLDn7+7P46Z9yU0Aad8ZfVmq7ZHFRYupRHDav1bafzUB4eiMjhv35vGLIS1W6mrvqClT5nMWqiISZUlHZSCBASH52nMBgoxpQRoOitoDNxy4PzcCHCS0B15NgU8khdtXIaIWgwUuUYmS7PEVZRy4ajkPgnshNhwgeDQHpqrAnbeguKeHaBH88hyUAoVXYxBkarA1Fh5/BDIxECBc1GAaBHr7/+jWPJ7wyZVPaZM/fnoOa3vC3+RIFPccKeC/duRB/gL1eixuNwo8XbAoWabHcq6rWoBA/gXfP1DArQMFUGbKcg/SJFCRJMpoWIlUxwwIyWfEAIT9uGu/28QQFrXgcjhVPNkL7du6DNOCAxpCnRM90GD8GVLu2bnZW6DDgJB88USdWTeA4LfxOzZ645+OTd2nvTu5kXHlXjOBlWDJ1iJY/QSYD6wwR5fDYoA/gh8k5BQFbz+TAKGnoUwMj58wzAP7fWzC83JUcrsNq7ujVb2UkvmzO/Kgt9d6PigK47JlGbxgWUY451XrqAYgiOJIxwq4flcBBypQQdGSDaU8fuv6DJ6xoHzVCwNC8hXnAgQ/7YDfpmprGpLBAXUZmPfAAQfFDd+TD8GpPfA6N4qTTHlEmBeMpo7nkPOR5AnzdEqYNQiS660uAcG5+TsgoQQQHJt7CUC4zAxmJ37ZF31NDaUgUuKPIAkJlEnx7Wc0HiDsGteED4KfBoFUzP96ShbnzAvfGMgZ7q7DBXxuRx7jZTgSSi7lspv1ZRWRxOnFyzMgh7hqHNUABDIXfW1PHncdjvY7ILOxmRBU6vLPnKPgQ6fl0F6m4yADgpS4fRtFAoKv2SEonNHcnV15ENxOiXJwYG7dzuRJTjNEibOkGRoZpD2woMNn03dniyyChS0sH+dwBgTJ9ZYqIHg3eseYpKs5+gGCs19X5kKPlkG4BRTTK4ufL4GEaBiwzksCCcLEQBqEFY2lQaCMhR94bBbbAkIVL1ms4p0bcqH1JUitfdMTBaHarm/9QXFh9ucUXLY8I4pLEQilfaQNCLTcqaIlRQgEaXFobz+tT8HT5qlY0qlgMg88ckLD745Rpc5wCZA/yntPzeK8CFiMkiMDQpSEgr8XgPC7A7aJwWVakIEDseNb/YebFcqDAxMafCIpLJVBXPOC1aMYvaT2wHWOV6zsg+CWyEvqpRaDFya8aZrtAAXPhm6d58pz4ASB4r996ytYDoteePAkRXJCgp+po8SUYWoYKHnQ28+ch4sbDBDymo6PPD6L3x6jJFGlDyfaVN69MYNnL8z4JtChUx4d0fDxrXmROKmRDtIkXL0yg79alj4kpA0IUwWI1NTfesIf0nqywOXLM7h0mduXgOZ8x5iG6/fk8fCI/xqw5vTp81S877RcWVPMgJBcfC5AcKjr3RkSHeGP5gYdlOtAbKDON3/fJEfmNmuGORobdFHT4DrfOSbRzJlAyVkvIsD3wNl3SR4Gb70JU44h5oU4gLAkM3vxDc/svyP57JR3ZrQRt7z+I8+uFSCI/djvvTIio6LrHKf2wHGeny+C2/fAXXDJzx/B4AWP06IJEUbqZTnNA71hvf2MuQ0HCHTpPxzM4/rdhcByyeT1/4a1WTxtvioc1ehaSSrTBWDvuCaKOz0eoIGghU+bU5J6DJGL2qfBRF7HWAHSCZXmtUF46V+4KAMqG53WkTYgUPGjT20z8lF4D9KQ/OViFX9NxbMCQgd3j2v47PY8towGV/DsyQA3ntuGzjLCDxkQkq+wMEAIiz4QvyiRCMlvsxcpjkrMB0Vo8OZasDUElvbA62Bob/yeyAVLLC5g8Wnj3UmT+B+4IAcibw0DQo00CBUHBHPzLunXaVD10zJ4Myxa/TjDF8UiLQ2LNB654eGSwgfh9Lm4aEV3Qzkp0pUNTOn454dnQ8vwkkPfmXNUkC16XrsiEv/sGdfx6yOaSJYUdMzJQajyz6+Ag1vUo5VGse2EJkwdO8flS1XPb1NEieqLFmVAZYbTONIGhIM0h4/M+jqbUg6Id2zIivkLOkh2vzxkRKJQ2KrfQc/mL/xFDuu6k9tkGBCSry4bEA6MmZ1ERx/UFA7Mjbi0QqM1fNMfwdeRMQggHPJLqj1gQChdhA2jQTD3YuMKHA95jw+Cr6bAeW4sSDB/y8+PwVnEyVMa2un3IEwMZ8zFRcsbDxBIzfydfXncsDfah4C2BjI7UPqHsIyAJFFqd3a/ijeflMWyzuoo0YQn/9ECbniiECtx0/w2iPLCz1+SjrkhbUCg+grvemi2pIwySZ2g7v2nUWbC8M1pZNbow89h1TrzY2dk8eT+5BTFgFApQPDJhmg5B1pv7Wb5ZuMXg1Mop6I5SAIHzo3bsflHOid6NnxLwqGZOzw+CKxBqKEGwbPVm3u/563TZXIo3kSBEQ2iU+vd3msGMM8P/N5hOgjZ9A1G8VR6DGgvnBRP729IQKDLPDZDGRVn8dBI5fwIFrQruPakjHBsKzPTcqynKkHCg8Mavrw7XnZHCue7bLmKFy/PVjwEMm1AeGJcw98/nBcFmZwHAd1581X86ynhjqZ0TkHT8d5H8/jTcHBVrA+flsVTynBUZECItZRdjQ0NwgDusjQIJX4BHmgINSv4ZT00QEKkQrJU/SV+Bd4Uzg4tgNdRsiRBknk5gWYHZxijR7tgMo4tEG/EQpwIBg9QsIkBQOoaBMeG7XcLlCh8vc6JzvO97BCUF6GOIMEABNIgdDWcicGar8fMPPl+ORHiPtbITP26NVm8cGmm4vn8ZcZCWpFHT2j4ws48dsVIAW2YRLJ4SYVDINMGhAOTGt7zcB4U6ug86DF7Vr+CD5zaFplBkgDhnx/J44GRYED49JOyOKWXNQgya7DSbQQg/H4Ad+0f81RiLGY3tGomGLu8uav6gERpUqMYcOCFBr+6DxFwYP+an5nACxCWIB05E9yLvFQ7GZn3kzUI7uVZd4DgBxRJtAhhkCC+k4lusBp6nBq9zosh5gYChLedRhqExgUEevO+77iGL+zI42AZEQlkWnjNasozkK1KCGHQg5gggYoDESTs9skUGXQehUCKPAkVjG5IGxAotPGDj80KJ0PvYRSqyuKUiPoO1Mc7HpzBoSl/yZCz4zfOaRPFnJIerEFIKjmzmqMDEEpqJpSYFvzMCs48BN6kRoDiKt1cfG0P1CikBAdFXDHlFRTaKBrGBARPe9Yg1IEGwdiCQ8wK1n3ToJBAPghvO21OQwMCTQFBAj3Eb9ibF7kRqAKg7EFgsKANeNVqigpQi7XjZTtIoR1BwgPDGr6yK489E/KOi/054OUrM/jLJdmKOC6mDQiUi+L63VQSu3TCjCiGDP5mTXC65IKu47aBQmBVT5qak3sUfPpJbaE5MaKmkAEhSkLB3xsahEHbxFD0HfAzLQQ7MPpt9oZZQTW0DkFmBT/NgQAEv2gDc9P2eesXb/dBDoZxtQcMCMkXlPPMWmsQfAEhhhbBdX5giGQCnwSvn4LHx8AYoiMJk+mTQJ9T+VUrNbMAhFMJEDob1sRgMxqAwUkdPx8q4A/HNJHfgEot++VJoPufwiDntik4vU/BC5dksKFXFQ6K9XJYKYhv3FsQmgS/6/AbKzkuXrUyi4sXqWWHaaYNCHkduH2ogC/uzPuGq9L8XLZMFeGc9G+nTwjlUKCESV/eZWTU9PNCofbXrsvgRcuyZU0rA0Jy8Ylyz78zAMEFB+YmaScf8poW/PIWOD8L8DkIMkO43u4dYYlR0Qr2eUnhwA8G4moPfPpgDUK9ahD8AMH7meNp5ZsboaR9ckhwQ4wZ1ugKg3Q4Q3rMDbYGYVnjA4L1CKONdc+4hgeGdewc10SGvok8hFaBNgwKCaTNZnWngjP7FWzsVdFVT2TgeBbTtfzuaAE3PlGI5ZNAmgQqVETg01HGtaUNCHSplPCI0l37mRnoe6poSQ6L58xVsbjDgAQq6ETn3XlIExqWIHgiM8UnzsyVZV6gMTAglAMIsH0QZLQHXhNEsObAfKP3goS1mcb1OfAxB5TAg3ej9otaMIiieEg4JrrgJUjUbGIolUxVNAhBG75jOJFJk/z6KBcSnH3aygAfkAjSJmiG2tZPk2AkUwKED8KpfbioiQDBmja6PkpAdGxWx9gsRA4E2iu7sxAbBiVPKmPvTP7EjHmm8LE4puFre+NFN/TlgMuXGbUbOhNeaDUAYbJgmAk27w+u5EjPW3LEpKJVdCljeeDwjA7SIgQdZKJ47RpKS12e9oD6f3BEw39uy2MwpJgU1cf49lPb0FVGQqaYS6MhmhO8kYnhbopicG7alhOi0zxgf2Z4K5aGMprRCj4+B8EOjJbZwGG+cBVQKs2Q6NqwIzQHJZu7VwspAQhxnBOtSWcNQrU0CBKAIJpEZVasBCSYffhnZDSXRmSuBGO04nBBQqkmIesAhIR7SEM8pBp9kAQJW0d1kf1xa0D2R79rpGyQly7N4MoVyZIpkdblS7vy+NlQeCEleiZ++qwcNvUms9FQBAplxfzj8eiCTTJzSaM4f76CN67LYmF7sjFZv0OFvL63vyAgJqyoFwHCTU/N1a02SkZuabSh15QPCUAYNwEh2PfAqWHwK8NssESA5sAVrugJN0xiUhA7v2PteMIhLVkFVmv0nu/3t9kJA0LClVcvGgRpQEgKCd7zkuRKSKBJoJedt57agwtJg+BjF0s4bXxaChIQGRdHNXxxVwGP+3j9B/1krwkJl6+In5aZNAgEJXKAkMWm3mTZCq3wTrq23TGySfpdMz3ST+5V8Ia1GZzcS06nySeDtBs/Oajhuwc0DM+EO4tS1s4bz80FpoVOPorGPlNoEP4wiHsGJuzt0B3WWHzDLwEEz8ZeUTiQNSk4N3bPMzIWHAQAQiQcBJzHGoRqahD8Nnaf+1JKi1Cy2bs7CvRJcJ4XVLvBIBXjqIAmgQDhulN6cNGyDgaEBngO09RvEXkSCs4JNUUAACAASURBVNgRI08CmVWuNKtA0kYme1QLEKxl/fiohg9vyeNIRJXGsPGv74bQHJzeVx4ckPbkF0MFfG2vBoq2iDroXvry2Vksq1Yt7qgB1cn3BAgf+sNB3D0wbgOCHZYo1qI3rFH1Ny24zA/GeX5aBvMb47diaA4i/Q08G3UoHPht6gEvYJGAEHAeA0KjAEIQXASEPhoPw7CMjJ4Mi972seo3mI9eRxSDs8hTFjoDQp08SGWHQQ9cyrj4tb0GJMhGN5BPwstWZPC8xfLRDdUEBAsSBiY1fGW3JiIUyLlUJmKVXgZJU/LkfhVXr1Sxtoy6CzSOmYKOXx6hcQT7RXjna3WXYWZJ6u8hO/+N1s4NCKbqn3wIZHwPxObo53dg9uNnbvCpkeAbqRDoYOjwWXAKO6i9yTiueZHwO3CBTNikMiAES6dqJoagTd4ztFAlozfLYsnfpddZljYhribBkX7ZGIkOimK47uRuXMgahIZ67pJPwv3HNdy4r4DtY/KQIKIbCBKWyEVuVBsQrEkYz+u494iGuw5rIq8FhasGHfTmTqGqFyxU8YwF8vAT1B+ZFX55SMPX92oYldAcUD8L2xS8aZ2KZ8yn8uINtZRSH2wJIFiaAK/2wIIBx1u/IUyKXHH6HaQEBwE+Bs4J9X3bT+CUKA0HoqH/gmINQrU1COVCgl8aZr8+g1IyW7eqX76EIJODNCSUOijagHBKNy5cyiaG1J+UFf4BevASJFCBJ9pEZQ+KBrhieQYvWqpGvu3WChDoWuj6HhulPAfh1ze3DfjY6Tms6iSVs6wU/NuRKeHnQxpu2ievOVjaoeDK5aqALrGR8eGSQBEQJoqplu2CTA7zghcQHH+7ohmc0Q2OqAiXlsD8XFpzkBYchGzwkaaFkHPpKwYEExBG8phTtXsuaJP3DCBQk5AQEmw28NZv8EKDI/mR2BKsvyNSM5u5m4shj2Y+BApzfOvJXQwIVVtglf0hKy3z9XviQQKp41+yTBX1G8JKRdcSEEhS5LD4hV15PBxSjItCHz9zVg4ECuUcBAc/OVjALQd0HPcUjwrqd1mHgqtWqHjOQrWsfBPljLvezxWA8Mch3HVg3BGBYLwZe50OxaZphzAazjJe7YETFgwfBAvKiloGK4ZBdCC0D6aU6DeND4ti84ODMHOC53T7N/wmwgcYS34/bAJDgJMAYWlm9uIbntl/R63WQM1xmEwMVQUE56YbIfVY5oagfn1e/CITK4VFOAQ6LjryJ1htNA0U5kiAcBFrEGp1j5X9u/QA3jam4Us7C3g8hiaBIOGvIkIgWwUQyKTx44MabhvQRIVQGX3M4nZF+Ds8e6GcuabsiW7QDkQUwx+HRJij2NAd2gM3IHiBwZsHwXBeFJuSaXIovoW7Qx/d2oQiHBh7uwcOnJtwXDCwxuKdm5CNXUpzENSv43cYEGqhQYgBCKJp2KNEVptgdOQ6EkFCpLnBUS7a9EcQUQwCENo5iqFBH8A0bHoIb6UQyN0FbIsZAvmipRlR5Knbp9hhKwAC+Tf8eNBI1DSal1sEc3PAK1dlcNEiFe2cQCRUaEGAIGooODZ7OypBaBD8/AwMYHBpEKzyjw6/hTCzQul3PpoEL0T4aQzCNvBKwAEDgtyNWBMNQq0gwQMKFYMERwSDgTRmOmayY1EUg61BkJsTblWfEnCaG+JENxAYXLZcFVUgKbuk82h2QJjWgJ8eLOAbewuYDHGEdMqENC8EB+TDkWGfg8ibwQIEOw+C0CCUmhcEIIjoBjNyweOsSEDhDGv00x5UHA6CdOhB814lOCChswahVhqEmIAQqUkI689PyxCUotnZj+174Jd62bxnneYGGxLcpoYcDA3ChUKDEHmvc4M6l4BwXBzW8M29BWyPEQJJGRevWK7ihUszrkQ/zQwIpDmgPAdf31PAlEwsJQDSHFyzMoMXMBxI3wkuQLD8AUoAIcS8IMwKAf4KVoVFp1Oi7VMQVq1RQnPg9zxMAAaGAiLmw1UCPBkQagkI1YSEoN+KquUgCQlOjYHh1Fg0NeRIg7CJAUH6adcADa0QyG/GjG6gokgvXZ7Bi5cVberNCggnZnWRHfI7+wqhIZTO6SafA3JIpDwSmXLSMzbAGqrkEEsAwQxvDPY/8CZKUg1DgqP+gpkZoRgCaEKEGLcDQlybs9cZMcjfIA4YSJgC0oAD1iCYK7RmJgbrDpGManDeUJEuTmF9hmgU/OszuJMquWHAk23RR4vAgFDJR2H99GUlUyJIeCyGT4JRu8GIbqB/NyMgjMzq+NGghlsGCqLok8yxvFPBFVR2erGKNoYDGZHZbawohrsp1bJwUqT/WKYEsfOb+7oVweCvTXD7Hrj9F4KcEgMdEv3goNZgIAEbTsGzBqHWGoQyIEEoBWR8oWUdGS0OcPbp1CBERDbYY3FAAn0mTAybOtnEEOuR1xiN6cG8c0zDl3cX8PAJGb9847q6MsALl6h42cqM2AyrUYshSKKVDnM8kdfxwwENPxwsYHhWbh6pZPTLVqo4f3503gi5HlurlQ0Ig5PGhTsBwetvEPC3M9QxUHvgCWcs0R74hDMWwcIzJwlNCVYvsbUGMeGANQj1okEoExLKAoWATIyBmgTfEEdDi1AKCMbIsoqO6zYyIDTrI5uwgCDhv3fFgwSq3fC8xRnhl3DjE4XUizVVAxAoz8EPBzXceqCAE/mSwCHfISxpV/Cq1SrOX5BBnBoWzbqeklxXXECwtQsmLAimEJoHMjWU5jww9lZLo2COsMTkUOpzEAsOJHwCXEASV1CS/Tu7ZQ1CvWgQqgUJfr8TBQnerIteGDA4oAgJLr8FAgTguo0drEGIe0M3UHua/h1mFcg45gbSJDx/iYqj08C9R2XKPSev5pg2IJAT4k8GCyCTi2y0AvlkvHFtBhcsypRVEbKBlkoqQ3UBQqT/AZkXTPODCQhlaQ8C/A6k4UBy406kMbDVDTEdGM3zGBDqDRCqCQolYODyWBQjcWkFxAcUvmh940ytHKRFYEBI5YlYh53S0nh0xCjwRMmUyJFR5qDChGRyp0017BR6xH36rPoEBApl/NnBAr4eI5RxThZ47doMLmY4kFkmoW0MQDiEuwcnhHmB/p9ihjoaJ1o+BwYYeJ0XDUBwhDi6IheMCAcrHYKVa7tohnDUMnBGOhg/Wzy8IFDHYGANmgFBAMJ49TMpytwSCZwXvd3G9lHwaguc+ZWC/BFcn5tQ4fjMMDGQBqGNwxxl5r2B29CD+qERTZgMSJMgWwVS5pLrFRDIrHD7kIYbCA4kQxnJrPDKVSprDmQmXqKNAQiHcffguEGbQfkOLP8DT7SCBQyGGcHc1c0cCUU4cHxuhRV68ijYL+zeN/eYcFCWtqBMrYFT3AYgzLR6quU6BQTrjV3iBpFrEoILPmBg1WCw3+o8IY++fge2dsHSNlg+CK0JCCQy8SatAJQML5miT25266UVPawfHtFEYqA45oao8dcjIByfodoKGr57QN6sQA6JV68gOODCS1FzLvt9IkCIZV4opl429RGu8EdDSeGpgOCEAh/nRe+1VQQKHOOQlV1YOwaEetYg+M1cBbQKgjv8lLleAHAAii8k+CZJMlQOdiikbpkY2nHhkpzYJJv5IDkdmwF2T+jYN6ELL/ZpTRdg0JVRsLAdWNWlYE2XIjz5m/UgOWw9oeN/9hbwSIzohjB5kAz/k0wMPZVdRHsmqFhTIbRYE83bZ8/KgUpZW8fxWeDWAU1kSZRNn0zVICnPwfkLVHZIrODiJ8XNh/94BHcfpDBHcwv3y5jo1CBEAYLLCdGnNoNz05eBA5/Nux6hgDUInoVZtyaGqBuoTFiQggTHb7grOxb9D+x+NFO/6gMI125sw4VLmtfEQNI4OKXjrsO6yDJ4eFrHeMGI8ae3G3pmkeazIwORanh5J/Cs+SqeOk8VuQCa8RDRDaM6vrKngIcqAAkCEM7MYFOv6U1eIaERzH1RBhDOzKHfrOZIeQ5uEXCgiWgFmYOqMl6zUsUz5lNVRpkzuI2sBOge+/B9R3D30IR5SkBKZRlAsCIbLECwgxrM9M2Wf4Jzw7crOFo/7zZHiE89Zoay4UDSh0FWhn7tWIPQaBqEoNlOCAslkBClRfAxM9CQnBoDW4MgvjBMDNduaF5AmNV0/O6Yjm/v03BgSsesFh3eJmBBBc7oU3DNKhXru0ndXM6tXJ/n0nLZNa7jS7vL1yTUCyCQzwFpDr4/oElHKyxoA/5mdQbPWqCCyp/X40Gb7Iwo0W74+bUJf77GWJTygODIoOirQXAmV3I6JzrgwAMGSUwLieGgyvPBgNAsgOB94sQAhrIgwc/M4Ey41OSAMFMAbh0s4Dv75TcL71SRTfr1a1ScPVdtSidOWiJbTU0CRTckdVysB0BozwA/GCwIGKTIBZmDQhlfvzaDCxfWFwQSyI7mdZHg6v7jGnaNA6QZKUCBCh0L2xWc0qvg7LkKTupWhOarXk2EbkAIq7lgAoJZzdEObzQ3fbpyq8yz+MiOXggHBBdGBYQ9WmslNhxUGQqca5oBoVkBISYwhKZYNjUBhqagmFrZcmK0nRWtDIotAghUiOeWAwYc5CVD+oI2FHoYX7dOxVPm1tcmIrMByrShpUGOizfs0/D4qHwIpLPvWgPCR0/L4v+OarHggDQHrzJLNteLhojAYGBSx6+PabjjkI6D04bWIOggTcLGHgUXL1Lx5H4FC9pjb3EyS6SsNsGAYKZYtqMWAgDB9jcwQECEQtrRDAH+Bw4QsAFBwjExVHo1hAE2MQQswYb1QUh6S/k8DSK1CLamwPxRCwac8KBbPghGrgTL7JBTgLcIE0Ouad6QCQh+PmRkD5wtEw6saSRNwj9sULGxwjb2pMuk0ucZIZA6btoXL+Ni8c2rdj4Ic3KGz8jPD2nCr0TmIJ+Dl69UccFCxcjSVwcH1YW477iGHwxq2BpTm0NZHs+dp+BFS1Sc2ldf2i5fQDC1BL4Fm7wahCBAiOt/kFR7UCfrw7tEWYMA4MX1mgchzQdKFCTI+CJ42ughgGD4IDQPIGwZ1fGZHQXsnagQHZhz/dR5Cv5+Qxa9NXZcpKua0XRRaIhU6fSc7MwA3VkFBHxJD3qQk7nhG08U8OBIPNnVUoNAb//kVygDgzROilShaIVnzleQqxPVAflO3HlIx22DmnCojSf94oyv61Zw1XIVz1hQP5BgAcJdQxOmWaC0KJPhT2FqCMyUyk54cNVf8HFQdJ1P4rA1DY67IQQQfDUHdQoG1hURICxr9TwILQkIjjd/58O+JHOis51IsezQIFjfWdqFFgEE2jCv310Qb5Okrg076JFEdluSm0xmQQp9vHYdpd6tjSdbXtOxbRx4aFgX8DOcN5wu6aA3SFKZkz36zDkqlnclgwWSxd5xHdfvKeD+YfmNqpaAEAeIKIT16pUqnjq3fqIVaA7vPqKJNNCHpuNcTWlbmge6xlevVnFunZjERB4EO4rB9EHw0SAYPgWOmgtWoiOFvA+MbIricAKCFcLo+M6OSHBGL/jlOnAAQAkg1DkckBgYEFpVg1AFQBA/Iao5WlEMzaFB2Dam4792FLBjPPgdjB6ip/YqeO4iBcs6FbHJbhulNzgNB0Me0PSyec5cBe/emBF5E6p10AOW8hXcOlAAXR/5V1ghmtZVWrBDoED5AM6Zp+Ily1Qsbo8/Tick/GlY7l02NUAYN8McKxCKSWaFv1lthK+S7b5eDqpY+bGteeybjI6wkRkzrdMnzVFEHYnVXfHnX+Y34rSpKCDYOQ2s9MrG9RWLNZmQYYOEOdIQQGhE7QEDgjmvrEEo3oqJNAgmbHhNDDYgUJjj+uYwMdBW9uNB400sKP6dNtBXrVLx4mUZl8+FrusYyQP/ub2APxwP3hQpR8K7NmRwcpV8EUj1/N39Gn5wMH4kxrwccO1JGZw3L5lzJSUp+tIuOXNDaoAgkQdBZrOa22Zof54+z3yDlTmpCm1opX1yWwF3Hg5Xd9H+1pcBlnQowqxEzotTheABUrgmZYS8fHntq1BWDRB8TAglDoo+joqNqD1gQGBAKLn7Q6MZgkwMFiAIz0Trf0bXQoPQRIBAD84bnijgBwP+kQsEB5QM5yXLMoFvkJMFHR/fakCCHybQ2/lrVmdwyeJ0X0Gt5E7f2acJ9bNs2J530WTpmleouHSpKnwU4hy0XCj08cu7C8I3IUyXUM+AQH4Zr19LPgcZbz6cOOJIpe3QtI53P5wPdK6kKSOTwQuXKkLz0ZsxfE5I03X7IQ2/OqThyAzghxeU1fK6kzJYX+HslnEFkTog2CYHTwIkSRMDA0LcGS22j/dESf47gWeyBsFHg2Bu+sYuX3xs01uw6zPH395kSc0ICBQnTpvZLw/7b2VP6VfEGzW9hYUd5OT44cfzODpT2oqcAS9flhEJlNK8OY7M6CA4oE1A1jM/6Jq6M8CVK1Th4R4XEui3/5t8Ooaiyz3XKpNi1GOHNtVT++ov/I/GfWjGSFbld5CpgJJ1/fUqVWisvGZxgkYK7fzWExoGp0r7IDPKm9dlcNGi2josMiBErdBk37MPAvsguFZOVD4EaUAw6KDpNAiUQpk2s18fLX1Y0puYZVogTULYMTILfH5nHvf69EMP3UuXZvCa1cnU9jKPAtqUrYQ/5G9QiWNph5EtkFIJx3GfaAZAqIT8atHH3ByEv8tZ/cEwOlHQceMTmihK5adlIk3XG9ZkapoynAEhndXDgMCAwIAQ494KAwR6838LRSBIZMyjTZnyAXzvQKnithqAsH2MNBgFkPq5UoflYPn61RmsiOG4VnNAqKCTYqVkWa1+nrtAwTs3ZiPzk/zumIYv7DJqjHgPSqL03lMyWNCWpr4rXCIMCOmsGAYEBgQGhBj31rBpYviVj4mBCvD87VpD3Rr1Bk2FnMjR8baBUkCgfsjE8IqVpSrfGEMNbEpWoc/uMMI0w/CAQIXeMDszikjJS9ULo9Ikd2ch3iYvjKFyrjUg7BgzqjmS2afVjr9br+KSxdGVowgo/31bAfsnS2U0vw342OlZUKKvWh0MCOlIngGBAYEBIca9RV7dX3+igB8NltrLyX57+TIVV6/IgDbKsOPoNPDxbXmRB997UO7+V6/O4IVL0nFSJN+DN96fDyw0RHBDIZpXLFeF8xmZTihMc8uYEe1AYZBhW+lzFioCEuZJvlHWEhBO5HXcvL+AHw7qiZ00YyyfumpK2/n7TskIx8So4/FRDf+xvYADk6UtKakXAQIlUKrVwYCQjuQZEAgQ7hkfHsljTjoirudejZTIzsPXB8FwJhCH7YNgf2Z+JyIczAgG6zunD0KTZFKkt+8fDhZw4z4Noz5lfuktikIUN/YGO6yRKO86XMCntvtHQizrAN6xPoMz5kQ/uJOsrp8eLOCzO4ND3p42T8Xb1qvo90mZeGjKyIJ4zxE9sP4EOWj+8yZ5z/ZaAcJ4Xhcmns0Hwp0jk8i4Uc5560kqXrAkXINA6/X2IQ1f21vA8GzplZGW6WOnZ7CqK531KiNLGxAGJ0RddSNDolF4SdyJIpuls4hTQFVHq1iTyHvgiFjwi2IQX5v3uflvMVb7PON7R6vipTRAkiQabFblTIqtCwgJ0i0ndlJsEkCgm+bREzo+v7OA3QFplim97itXqVjZWWoioM1w+5iGT2739wqnx8mZcxT808kZ9MUMGZR5kNL8EZjcERATT9qLT5yRFamC/Q7aLPaM6/jKngL+HJAFkUwT/7gpIzIJymQZrgUgnJg1SjZ/dyA6G6aMXBu1zdPnqXj3pvA8BsdmjPm+94h/ka1VnQo+eGoGiyIid9KUUQkgCChwAIKzAFNUJkW/REmtGubIgNDCGgQGhETPLPLq/vIuSjzj/xZN71FU9e55i1Ws7lZEXQVKs3x8xoALKpQz4BMyRoOhcwkQKOEOpTKutNK2oAH/8Eg+0N5+0SIF71yfDY3lp2v50WAB3wrQotCY37xOxfOXuBNFBQm72oBAG94tA5rw/5CprZBokTTISWQKe9NaI7mTX3gqgdTPhjQBU+SD4necP59yIWRBBa1qdTAgpCN51iC0somBASHxXfXnYQ2f2VnAwangLkj1urZbQX+bAtqYD03roMyBkxFhhRQN8cz5Kq5YoQrHr0pCQl4D3vpgXozD7yDzCDkYRh2PjOj43K7gYlWUbviy5Rmpwk7VBIQj0wYcUMjelERVRpJ9TxboILV1lFDq9PsJs+iW3/Domha1Q0TenDdfAWkD2lUFs7oOSs9MYbj3HtEC6zeQv8rfrFJxaUhisGqIhQEhHSkzIDAguFZWankQmsjEQAKjTe22wQK+tic8EoDa0kM4rn88QcL588nhUcXSCkICAcLbH8oHJs75f5syeNaCaEAgwKCU0eSw6He8fk1pqulaaxAIDr43oOGOQ5qoUhl10LxRYSrKELm0hurzqHFGfU8pkylqJUhbQtdJRcLoGhd1AL0ZBWMFXcAvabrCgHZ5h4K3CX+Z2gIUA0LUKkj2PQMCA0LVAOGCxdHx1smWcW3OolDFr+813kbjAoDMiCnZ0lPnKnjD2gwolKwSBz1I/+WxAv4cUGr5smUqaHOPOigk8HM7NV8/DPI7oPC55yyIDve0YIuyU/78kL+N2xoLbWSfOiODTb3x3+XJue67BzShLpdJDEW/QH4Y9Hb8F/1UsjlKIvX7PUWgUIjir49Fr1K6bpo/WidRrand8xereOVKtabmBZK8KPf8p6O423JSZB+EiixIBgQGBAaEMm4lssd/ebeGHw9pkTkCkvwMPbCpENJ7Nipok/H4i/gRclL8yh4Ntw76P/6pDsSXnhzuIEln/uyghhv2aaCMkN6DVPLvPVnF6X1yqaJJG5MmIBAQbN5fwPcHgiMvvNdAQPbWdaqorGl7syeZwDo5hzQ9H9hSCPQjSDLM1V2G/wJVdaz1wYCQzgwwIDAgMCCUeW+RCpbqGfz4oIahacP8IHPEMT2cN0/BW9apmN9Wvir398c0/NvjwVqPFy5W8epVCnpypb9Fl7Z3XMdX92q4PyCK4fQ+Be84KYNlnTJSMOSVFiCM54FbBgrYfEAeDha0Adc1ERzQLFCK5J8Oabhpn5x5JWrmCCSvXK7ir5bWtgaDNU4GhKgZS/Y9AwIDAgNCsnvHdRapcakgDuUHoIRCZO+mPAn0ucUL5NBFZgMKX1zQDmHbJVs+aSGiDoKJZ1D45ErDcbEcZQKVd37HQwUMBDhYkv/DXy5SccEiBUvbFVBmRzrIqY9CHMmk8n/HdHFt3oMiM69crogSwGTXljnSAoSjM0aegx8P+Y/VOzaS8couBa9bpeIpcx1x8DIX0QBtjs/ouG1QFxk0T8xGmxCCLmlOFvjLxQquWJFBj+Qcpy0eBoR0JMyAwIDAgFDBe4s2TXLsIg/wwWmAqj+ScxhtPuQJT5ENyzoVrOmiqAbgO/s1PHJCDhIobxGpvK9eqWJdV3JIoOCVWwYp8U1wgiDKZUAOeqf0wtZaHJ4BKHphVwjUkNr5zWtVkeRJVvFcaUAg3qKETpTj4GdDcrK1HBJfsVLBuXPTSXFdwWWWuCuCJqpE+otDOgYmwzNi+gEURTlcsljBxYvUmhZn8o6NASHxkgg9kQHBBIThVsyk6BPmaNRfNA9vaWf62PzMP2GSbmRatM8rVnO8bkMbms1JMezOIhnSQyuvF+sXkAaB3rCtt3/6jvIiUD4BcvqT0SSQBuLsuQquWaGKEErZTdg7Viq6Q8maHvJJ9exsa42ZPiPQCavFQBqDS5cqIt10nJLPlQaEg1NGtAJthFEhpXRdJENKKX31CgVUrjtXjnomned0RXsdL+h47ISh7fr9cT0yooPkM7eN4FTFs+crOK2v/pw2LUC4a3ACipk1kRIlGf4jlFXR8iUx/01JlMzPre/E3WRnXzRXhjjdPMdqL74yMyQ6MyI6My9aMyYSLFmrzDGNDZJJke6FZZmZi294Zv8dFV2EMTpL+oyL8RPhTSnVMgOCIaOoMEfa/AVAeOHBmWrZAQhk6c4pOt7aYoAguzgJEraO6vifvZr4r4S1AfR2f3a/Aso1kDRPAj1Q/zRslK4OMjXIXgO1I5CgMb1xrYplMUMCKwkIlGti834Ndx3RpaMVCLReuVIR0QqVcASNI7dataX5JwfTJyY1sQ5IM0TrgCJzCFRpPsl8QOuLEnfR/1Z3KSJaoeYPbB+hyQCCnXY5IJOiExDoJ4QOLAIQjD7NIwAQDDzwSI0BQXrp13y9MSAU5yoKEOKmWmZAiL4P6OG2b1LHx7cVsGciur21IZ/Rp+DvNqhYKFkUydszbcx3H9HwjSc0HJuR+92gVid1A+9cr2JNt7xpweqrUoAwPAN8e78RLinrKLq0w/DEJzhIIbN1eUKtwtkEpGQWmy5A5D6g/BD0d5Z8ZXIECQRNEGGeNX9Qh8iDASGdxcIaBDYxuFYWA0I6N5pMr4NTOj70OGUnLDo2Rp13So+C/7dJxfz2ZOYG2gzobft/92ughDpR5Zy946GNY1O3grevV7E8YbnfSgACbWwEBz8YlDPV0HVQtAKltD5XhDJGSZq/r2cJMCCkMzsMCAwIDAjp3FuJen1iglIYa3h8VD4sjzQJf7tOFSrgJPl86OFKvhC3DWp4fEwXFfuiQKFDhSjO86z5Cl6yTEEX6aQTHuUCwvCMjpsPaLjtoBzg0EhJc0DmkHP6m9chMeF0NORpDAjpTBsDAgMCA0I691aiXknlS0ltyHHxoRE5VTn5ZD15joJXrFKxoVsR9uMkx4m8jj8dp7wBGnaMB3tDkCr+afMUvHSZCjItlOvUVw4gkLOlFcoo4+RJoiGfg1evIjhovlDGJPPeDOcwIKQziwwIDAgMCOncW4l7pY1u57guQiDJgcwv30CJql+ByIdPtRtO6U0OCdQvZYa8dTA42xPlSXjdaqrWGN/fwE8oSQCB8GXIjFa4XdLngOCAZHPVCgVn98ulKpdenQAAIABJREFUgU48iXxiVSXAgJCOuBkQGBAYENK5t8rqlSCBEi99c5+GB4bl7OqUJ4FC0OjteGNP8jwJX9mtiTwJQQeFMxIgPK+GgDA0rYvaCr86LB+tQDJ5xUoVZ82pvzC9shYLn2zXYggLc+QohvgLhQGBAYEBIf59U5Uz6K1o/5SOz+8s4OETcj9J5oWTexRce5KKNV3JbA31Dgjz2yGcKu88rGMqonQ2Sc0yKxDUkL8Geejz0VwSYA1COvPJgMCAwICQzr1VsV4p+92HHzccCGUPyrT4vlNULGyPDwn1DAj/dqqK+47r+NFBOa0KyWtRG/DODQYcNEPhJdk10ErtGBDSmW0GBAYEBoR07q2K9kopm/9ju4YHR+SjG1Z0AO/elMHarng+CfUKCCRQcsak7I+yDomL2oG3n0RmBY5WqOiCrLPOGBDSmRAGBAYEBoR07q2K90o1Hr66x3BcpOp8MseGHuD1azI4NYbjYj0Dgsw1O80Kb1xDmgOOVpCVW6O2Y0BIZ+YYEBgQGBDSubcq3isZGKj6I6USphz6MvZ34ZPQC1yzMgMqw0yOjFFHowMCXeKmXgWvXKHiyf2cBClqvpvhewaEdGaRAYEBgQEhnXsrlV6ttMybD2j4zVE5TQLlLSAPfqoC+aQ50SmFGxkQrFBGKrz0pDkqOySmsgrrr1MGhHTmhAGBAYEBIZ17K7VeSZNA5oYb9mr4zTE5ezxpEtZ2AW9YkxGhkGEFCxsVEERVRpEEySguVG4Cp9QmkDuuuAQYECouUtEhAwIDAgNCOvdWqr0SJByf1fGZHRr+eFwuuoE20OWdwD9szIiMi0FHowLCyk7gzWszImFU0mySqU4ad56aBBgQ0hEtAwIDAgNCOvdWVXodL+j45HYDEmQ8+2lQ5Nn/LydnQKGQfpqERgQEuqa/W6/iTA5lrMq6q7cfYUBIZ0YYEBgQqggIGWS5bF7F72QKgfyfPRr+76iOKcnohiXtwFvWGeF/VJHReXxldwG3DAZrJSqfalkX6Z2pTLMs5FjjJT3ICtIc0LX0cShjxRdXg3TIgJDORDEgMCCkDwjQcd2GNlywmAAhnYXc6r0OTRvZBe89Kp96eHUX8MqVKs7uV9DmgITr91CqZQlAWFyZyaRaDF/ZEx8QSPuxqUfBq1YaPgeVGU2rr6TGvH4DEI7h7oMTUIRaTAFUAkbz3/RfhdaI8V/xnfVv13eq8T0AUWlEnO45l760XnREn+bh+MyWovlZyepskBclBgQGBAaExnwmeubNcFz8/oCOe47IQQI9R9d1QRR4ckKCFCCsoloMldmUkwACjf30XgUvX6EIp0v2OWiCRVzGJTAglCG8kFMZEBgQGBDSubeq3muxwqEu6hTIJFOijXYNQcJyFefONYoY1TsgkLKDoOCaFYpIAMW1Faq+1OruBxkQ0pkSBgQGBAaEdO6t0F5nNB3Ds8BYwdBidmeAuW1yiYzCOiZIGJ7VceM+HT8bkotuoA2XnPz+dq2Kc+YqdQ0IJKsNPQpet1rByQQHbFeoweqtv59kQEhnThgQGBAYENK5t0p6ndJ0PDgCUaL4kRM6RvOwnfIyio6erILTehU8dyFESeKuMvTmsxrwXzs13HlEDhJosH1Z4J82qfj9MT3aB6FGJobVnUZtBUr81CBm3LJXl64DFK0yMAUcngGm8kB7BljQDizrUNCbNSCzlQ8GhHRmnwGBAYEBIZ17S/RKQQWjszr+NAxRgXDneHSxJXorJt+AFy1R8JS5CvpyyWz9pKX479067qLoBomyyBYk0KYTVjlSRDHUABAWtAGfOkPFvLZk8khxmiveNUVzHJsBHhvVRXTKllEDKPMO3iPNT18OOKVHwfkLFOGT0d+GltSqMCBUfAmKDhkQGBAYENK5t0APrV0TOn580HjIT0hu0tZwujLAs+YrAhTWdCfbFEdmge8OaLj9kLHBVOKoFSCs6lTwxSd5YjIrcUF11sdYHvjziIafDQGPjOogbVDUQb4kBAp/udioeEnmqlbSKjAgRK2QZN8zIDAg2CvHeDlxvKKQblN8VPxM935m/k2f0/+JtnYb6k1HFjre2oJhjtvGdNywT8dDI/Hj+61JISsDPfBfs8qAhCTHkRkdtw0CdxzScKICkMCAkGQW5M45PA38ZEjDz4d0jCSYqzk54NnzFbxgiYIVna0DCUGA4Apt9IQ5kmFGhEEGhDkaYZDuMEcjbNId5ij+9PnM1c4IqiweDWIfY0AAcOk948PDecyRu4WbqJVj47euSmzy9h+VAYScmQfhwhbKg3BwSsend+riDdBHzLEWET1YqMjS205SsKg9PiTQLB6ZAX44SI6LGsZjajK8g2VAiDV90o0J5P53v45fHpZPeOXXOc3P0+ZScS4FyzvirxfpAddRQwKED1U4D4IsIDR7HoTlmZmLb3hm/x21mu6ar2AGBAcTMCCUfR+Q7f/zu4wHvYR2WOr3SIX8vEUK3rgmeRGi47PAbYOkTdBAuQeSHgwISSUXfN5kAfjegIYfDOplAxz9SocKXLJIwTUryYmx5o/YygvM0yMDQjoiJg0CAwJrEIpKAwaEsu+03x3T8akd5b+pewcyrw142zojFDHpQc6Kmwd0bN6vOWc6VncMCLHEFdmYNDwUOXL9Xg2DU5HNpRt0ZIB3nqTiGfOTrxfpH6txQwaEdCaAAYFNDK6VxSaG8m60qYKOj2/XcN8whJOi30F+BZT3gHIP0NvdWF7HoWl6c1RcXurec+m8Z8xT8No1KtrKeOaTh/y39ht2bvkgyOJomhUQLFmUIdpEi+foDPD1vRp+GRKSSnNPgHhOvyJKWtNYt40BD47oODwT7ONyUhfwiTNUtIfV90406vo6iQEhnflgQGBAYECo4L1F+Q0+vTP4TZAiE546F3jJMhWrOikkzYACSpNMkQZ3H9FBpoCgg2omzMmi7NTCs2YYHQMCQOr9g9M6jkwbYamUV6Cax+5xHZsP6MJPxO+gNfO0eQquWKZgJTkemgRDm+K+SR3fGzCiZPwyZxIXvGu9imcvqDb2VFOCBoyzD0LlZc6AwIDAgFCh+4oeUmTf/84BHRSq5j3IFPxXSxS8cpWCDp83uoKu445DOr65LxwSKjTcxN00kwaBQk+pdsUPD2o4MGnE8FT7ZZvWjTO/gXNiCAgpKoF8CYIcVAkoP79Lw2+P+eMeJd364ClUr6J5IYEBIfHtHHoiAwIDAgNChe4tcvyjOgZUttjvgb+pB/j79SqWdwY/qCnb4ree0HHrYOUcHCt0eXY35AD316tUkZ+hEpupbLGmSudBoN8lICPnwIPTlZZSZfqjOhlvXKNGVqt8fFTHux/VfMtl03x95S9UzMsxIMSp5shRDEaiJHZSZCdF+2nGPgjJH+zjeeBzu4ySy953OXo0X7VcwZXLVdAbeNBB5z16QsfHt2k4FmJqSD7K8s+kVEVnzgFes1rFSQkTODlHUQtA0HQdPx0Cbj6gifTF9XgQfJH24E1r1UizByVTetOfNQxN+2sRPnqaijP7GBAYEOKtdAYE1iCwBiHePRPYmjIVUv2DX/uoesm8cO06BRcuVCP9B0jV/Z87NGwZS+IhUKGLieiGruf0PgVvWVd+rH21AYHU0T8ZIlOO5msKqo4Eo3+lXQUuXaLgVaui1wytlLc9WMCuCf9+372huf0Q2MQQvZ6StGBAYEBgQEhy5/icQ34HlgbB+zV5oVuAEBWWTqFun92p4aET9QsI1vWd3AN84BRVFJpKelQTEGgj+emQjq/u1TBVRi6IpNca5zzyPyCfFTLnRNXtmtF1vO5+TdRv8Dv+br2KixYmn6M4465FWwaEdKTOgMCAwIBQoXuLNrr/2Us59P19EC5dquCVK1UR4hh27BijUEmq3lf/gEDXcUqvgnesNzQJSbagagEC5YC487COb+/XQiNFKrQcyu6GZEk5DN6yVgWlUA477h/W8d4twcTz3k0qzpuXZHbKvoyqdMCAkI6YGRAYEBgQKnRv0XZOmQppA/KLYljWAbxzvSo21KCDnBt/OqTh+j3RVR8rNOyKdEOpoF+7WsHarviOi9UABEovfc9hHTcPkJ2+IpdclU4Iul6zWsG5cykKwf8nD00Dn9mp4c8j/kBJvgyfO1PF6i4GBPZBiLdsGRAYEBgQ4t0zoa0fHdXxmR0aDgRkxKO3OFIZr+w0C7w4erMcFL+0W8PuAFtyTxbiTb0Mjb701Ro1HIz4/KCkT1ZnNB4qKnX1CgUbe+JBQtqAQJqDXx7W8P1BYLBBtDKWXAkKCL6uWK6Iao05RzFLSni1f1IX6ZlJM0K5LfyOpR3A58/MoD1CcyW9MOqwIWsQ0pkUBgQGBAaECt5bFFdPb3O/Oab7bqr0wD+jTxH2YIpP728zfnxkVscDw8CPDuqgKpB+z3rahCmT4kuWESBU522QEvFQuejd4646n74SI5v5WX1GzP56ggRJuaYJCLRxkMmHrkFWc9ClAucvUMrKVil56aLZ0Vkq76yLhE1+B8372m4FZ88BTu1TRKIsWme7xnWRsXPLaHhxpyuWqUIL0cwHA0I6s8uAwIDAgFDhe+u+4zo+sV3DWMADnx7Vc3PAwnZgTs6w2xMgHJoBjs8Eb8QL2oyseGfMqd7Dnt5KKeyStBr7JqMFRaH2Vgjkmi45n4S0AIFCGSla4Tv75RNPdWcUvGGNIlIaZ2QJJ1osoS2o8ieVBSc/grCDwmP7shSbDpHvgMxYZDoJ0+705YD/OF1t+qqODAhlLsKA0xkQGBAYECp8b+U1iA31p4einQytrT66JXD1clW8nUd5tFf4csQGtGdSx0e2yhUTIpv3ab0K3rVBwQKJohFpAIIFB1/d65+C2E9G5Dz6+jUqLlxYXRnTZn/7IQ3f2KfjRAVzX9DaeulSFa9dIwdqlV431eyPASEdaTMgMCAwIKRwb40VdLzvMcNcUG40HQHBU/oV/MNGBZ2VSF2Y8HoJEj6+1dAkyAANhUC+Z6OKhe3hG1SlAcHKkHjDPg2UmyLqoI2U6i+8aqWCixapIFNJtQ/SHFEEDCXZCkq7HGdMdE0buhW8e6MK8kFo9oMBIZ0ZZkBgQIgFCNBN+7hubhHmf3XxuQ76XvyPDvondOSg47oNbbhwcaYqznXp3CrxeyX7/Rd2aXh8DKBNK8lBauW/mANct05FX41T5dIlbDmhi41sx7ih5o46CBL+dq2RcTGIbSoJCKRyp/TJ3z0gl4mSNtL5bcBLlym4ZJEKKoxUq2P7GER+hkdG/f1XZMdFfEMRM1T1k8Cy2hon2XFWsh0BwofvP4a7BiegiIWmAKoKRfjqKBAVrhQCVeNz+9/m58W/Hd/RAMXpxXON/szPzP/aBj/vd452JYhcJR+icmXMgMCAwIBQ7l0UcD7tn3sndBH6SH4JVFRHYk8VvdEzbmGbEQdP+RMWSqjqU7oMV7f0dksJnG7ap4lyw1GQQNdxei9ENsBNPf6bVaUAgXw+7jykiToWFPoncxAcvGSpAQcUIVLLw4pioTDZR04EF3AKGyPBwOpOAh4VT59PRcFqeUXV+20bEA5OFKHADxAUEwCc4EDAIFiAQIABwTlrDAgMCMkAgc5yaAtYg+D/MKSH/rEZAgTg98d14XF+IkTtTW8j89qMNMZU4pdC3KpdfjjqsU6Q8OCIke9h65hcCOQZfcDVK4wcEN432koAwrSm46cHgVsPajgsCQeUfIjqY1y8UEV3jeHAkrmAynEdPz+s4zdHg0tA+81RR8YwRV2ySBHrh1I1t8phAcLdQ5YnbYAGwQsIpjbBFxAs1QBrEC6+4Zn9d9RqLVXPJTvgCi/lYk22ZKKKNdkmBg8gGJ/rIFDwNTGszwkTQyuoO/2WGW2qtHGRRmHbOLBzHDg0rYtwNboByHuebMUn9QAbuxWs6gLm5VC38qLreWwUuH6vhl3j0Y8Oso6c1qcIO//GHncOCIqU+MoeXVTBDNNIUO6IL55VuuuR6eMHgxBVGUlLI3OQKYFC/6gYUi3NCkFjJd+JLWMQkPDAiC5SKAdpn2j8BF7nzzdCaBe1QzrEVEZWjdCGZPPh+4/DAASHScHSFFhaAhsQDE2B/T8/DUK5gOAwI7CJIfkqYkBILrvyzrR8BRy9pAkIF7SYD4Lf5NCbzrQGUQeAKvDRRks3AIXUkRWB3gLpza/mN4XEyqLNfOcEREgn1Y+IOggOySfhzWtVUBlj6zA0CDp+cTgcEFZ0Al/yAAKN4fsDlOdAFyF/MgdFK7xxtYrzFxiyrteD1gpd09EZCGdXMukcnKIcCLpIekQRIuu6IRIoLe4wHC2rkUCrHuVFgPCh+4/hniFaiE5AKIKAnUWRfBFMUHD5JjjMDnapZ6FakPBBcPoU+PgiMCAkXzU1fxa2rAbB0gJEAYKzneWk6PnMpUGwvrOcFBUd163P4YJFreWkmPyWaKwzKWvk+x+XgwS6snVdRoEnygVBR1JAIDggf4Ob9suHMtLb9utWU+Gi+tXOhM0+bYSWJsF0v2usxZLSaEmLRE6KTkBQhNbA46BobfYMCFIzwT4IreyDwIAgdZNwo2gJbB83Sl3vmYz2SbAg4e83qFjZYWhR4moQyDTzi0M6Nh8I9+mwRk6bab/tc6AITQ0fzSOB1ADB1AZQ9IKtgXBoFcQ/rb/txeaJdLDMF05xcxSD9OJjDYK0qFJo6DEz+JoYWIOQguCbq0t6myfP+xv3y0U30NWf2gu8drWKNZ2UA0DexEAZBKn2wC2Dck589IChLJQvXqrg4kVKZDXN5pqZ1riaIiCYHqq0oVdCg8CAgOWZGXZSHM5jTmvcSp6rrDQgWDAhnBXNPAhsYmiJpWWFQH57v2EvjwqBFHUpeoHLlym49yhw55FoH4RPna7i9kM6bjsoH8pIcHDFMgXPWaDUPJSxJRZCDS6SAOEj9x/D3VRwwzYjxM2BYIY52g6LxXwHLg2Cx8eANQjpTjhrENKVb3jvYY6Kzu8ciZFsb+qSZEmaYR+1IhnMhllFYx+EWs5xFX+bIOFh0iSYeRKi8j5QdANFNZDTJlWwDKsrQMl/nr9YEXklqMKkzEG1C1690oADNivISKwx2wQCgjOvgTMpkl8CJfG9apgSLNuBnwYhDBD8nBXZxFDWomJAKEt8ZZ6cJiAIWCDPagaEMmepoU4nSNg6Cnx+t4YnJAo8kSaBHgJRKYYpBTIl/gnLI+EUFMHBm9aoOG9efUcrNNTk1ulgDUCgMMcphwbBP4JBZE10OCkWgSAAEIT/gZVIyXR6FABhbF0uDYIPIPgmGmcfBOmVxIAgLaoUGiYABHPfd+Q7MN4Tdd2jQWBASGHCGqNLemATHHxYssBTpa+K4IDCKZ8+rzGjFSotj2bvzwYESqFpv/XHAARbK2BqEEpyIFC3ZkxsTA0CA0J5q48BoTz5lXd2BQGBTAsCEZymB9YglDc/DX42mQ0+ud3QJCQsRxFLAla0wl+vMpIgUWlkPppfAl5A8K3B4PRN8GoQEuZAYA1C+muLASF9GQf/QjmAYKgNXEDgDwiUByHLeRBqOc81+m3SLVEI5P/sMdIyR5kRyhkmPUgWthsOiRcsbJ06BOXIrFnO9QUEr/8BXSzVZ3DkRnAVbTI/t5MkhUUwCDJw6AbiFGoyz20E2XMeBM6DULJOQ7MpWtUbrbNc2gJ/DUJO1XHtSZQoSW3ZTG+N8DBIa4wUzbBlFCKh0WOjlSln7B2rBQeXLTXgoB7TJ6clX+7X0E595IFh3H1o2r+Co9NB0aroaG/yll+Bo+KjcDowfQycORD8zAvODZ99ECq+HFmDUHGRxugwbrplGUBwahaEiUHHW07K4iJOtRxjYpqrKWkOnJAQFQIZ9+opK+M1KxQ8ewHDQVzZNUN7AoQP3j+M/zscAxC8yY9It2D7GThTLEs6KHo1A7YTo88Wx06K0suOAUFaVCk0lAUEjznBN9TR7MtrZlB1Ha9encWLl2fqOvd9CtLlLh0SICggM8NX92p4fKxyounL6iLh0vktVN64ctJrjp6omud7/nAcj9khLmY1xyBzgqO+gqEpsLQFjkIodhsGBK7myImS7CdFaDbFCA0CdVLqh6Dj/Pkqrl2fxRwKfOejZSVAeQ72TgL/sV3H3smoLAnRYurLKXjzauC8eeyQGC2t5m2xZ6yA99x3HMepsEdA/QWXv4EfINgaBVNOcQFBNgeCV9NQx9PCPgjsg1CyPGUAQSgUrDMtLYRm+KmbwY6uhEk9GR3vO70Np/UyINTx86BqQ6NER+/boglYSHpYeQ6ozHGrlhFPKrtmOo+eQzdsG8PmJyYxKzJtmb4EVqSCtSE7TQqWs6K9Wfv7HxBUkFujOCw/BscGH5UDQTT1q83KJgbpJVjzHYOrOZbOlQ0JAdkU4wIC9Xd2v4J3bsxhbpvvLSO9YLhhc0hg1wTwhV2aiHKI45NAD4z5bcDVyxU8d6HCZqvmWA6JroJ8W/58dBqff3wMB6iCl6U9EP4ExUqOtvaAfoVqNLj8D4oA4IpgMDdxAQg+cGBs/kVnRsup0YYJ84oYEBJNrX0SA0J58ivvbB8fBGPzN/UDcQDBDHmkc/1SLiswTA1XrcxgRZfKD/byZq7hz6aXPfJJuGGfJhwYZUIg6WGxuB14KYUyLlDQyVUZG34dJLkAer5M5HU8fGwG/7tnAltGZqHp7jd9V2IjbySCFxCSmhcYEJJMX6xzGBBiiSuFxpXIhSCoopgTwS8fAmGDCh0n9yh4xoIM1vcowichayWzKTFJez6QMllLNApsInFuCuJv5S4JCh4bBX40BAxMqyJcTQehpMOE5RBQb0bDxfN1PHMB0MVJkBps6QQ86qV2AKMRPUPyGnB4qoBHhmfxm0PT2DdRMGt4FN/0vbkOjH3czKxo/dve3MswLzAgpL4GpZZHmqNoaRODtbF7BCzjhxBUtMnOqOiEBrOyo7ifdB1dGR0L24CenIKMYoKFoXYwd4YibIixOBMyWRoOV3vrXEt74ezL/Ld1jQFaE1sEVr9pLjru25YAQcLQjIrhPIFBEQ7o34aamBaNKjS47Voeq9vzrH1qlPUjY2t3tXFoAcTDwoogMP8wa3YMT2s4PKNhmmxTjiyILlOCN/eB39+2ScLxOw5zQqT/gR8gOK4n0JgqI5c6mGN2Umx1J8UkgOA4xwUJnoqPro3dsljYqZiNTd9u44AJ93m2wcIBCTp0TyVJI72zWRPCWRLQAxbO91K7D++NyIqEOng0WUMwAUH8qZhZO3mC6miCoofimwbA+6Hjb6e9X7Ch9Z1PoSQPHBirxMf3wJngKMi8YDGIFxA85xZRxbx0z3idvggMCNHLI6oFaxCiJJT293FzIUgAAjWxoxnM6AZDOeD0bfBAgmMzp8JPzpoOpVqEcEgQQ7RAwc+PQsjUvdEEAkPa8uf+WQItIAGjPoLz8PztzVJog4G5JXu/d8KBaELbsSfiwMf3wGhK9imPcyJ9Yf2mN3rB7N9VwdH6zPlfz78ZEMpf2AwI5cuwvB4qAQgWNHj9EAQpmG/3cbQIlkbACQ3Whm4Bh6Ux8KR7NoRh/5ihbfBeo+tvfiMtbwHx2SyBOBLwaAusU00AKGoMTDDwbs42aHicEsPgwNGHrWFIw7wgAwgNYl6gS2ETA5sYSjdPZxSDtfFbN7FXte/Nh+D53nZWtD83tQj2Bu2vRfAzPRjbvtcfwTQr+EKCDyh4r8fvb9ezjuEhzqOf27IEDAkEOST62huMMyx/E+/5DhV+UQshCQdOuDA1DnalR/O7otbBnevADm/0AIrr6jxaDfNC7EXQyCGODAjmNLKTYukm6HJSdG6iPup6X2fFgLTLxRd7661ewhfB+n07i6P5i2GahJKN3wMSFjv4OSxGOTHyHsASYAnIS8DvjdkDA8UmPtoFS7Pg1Bw4NmaXWYFGRXkOvL4IThjwmCYCcx9YYOABBHuEfnDgPKfBkyQxIDAgGBKIMjEkAQTznJKcCObGHOmL4DjfHqOfuSHACbHEiTEAGDxuCKaGQv7Zxy1ZAiyBaAmU+B8Ud9niyU6Q8IMCq6VTo+A0K/jBgWNzL5oWDHwoJksyOzb7FUEzDvOD7XRojck5Dg8QuJIlMSBELwyJFuyDICGkVJvEAYQAWLATI1kDNTduw/vA4QPga2ooOi6WmBCsSAfrd12REk6HRyfoFDUivqAQAEVOv4VU5c2dswRaTQJGysHSq/ZqF0rAwHGeN7rBx+fAaB3gqGhv5g44sLr3aCSM4XpDLj0GgwjzgmsszitnH4RYq58BIZa4UmgcoFIv28xgbsShWgSPL4I4xetnEAIJdvsAcLFDH0OdFE2ZsmkhhcXFXbIETAkEmRocAirxMfDZqEtMCkEaBVsj4NzojX+7yjpbvyEiHmJqD/xAwnk9MlBUxwuEnRTZSdFYnnG0CAFhg75aBCckeB0crbBHP0igMEfPpl+S/tnTX+D3Rkeu29A3pJEBoY4fVTy0hpeADyCEhj563tBLwMCxsYt/hmkUPP4Ltt+BZ4O3AyVltQchgNDoDop0aQwIDAjxAcELFLbzoPkIKwEBQ4fgAgjrHFdbt8lA5ELwQIKx1fuZLEwnRCcIBICMXxJfzoHQ8NsPX0ADSKAUCIyt3T58/BBc9RB9N+5SU4Doz5UQyfwdV64EtxkhkfaAASH1VccmhtRFLPEDMhoEn83auYGXRDNY7Z0RDd4+/JInOdqEQkLkeBxag0gTA4czSqwSbsISKFMCEX4IDkAI1Bg4NmVfc4ORn9ntaGhCiK9pwezPFdbos/GXRC8423j/3QQOinRJrEFgDYJxw8f1Q/CeI6VFCHZYFN84TQ1OSJDRGPhoLZxPssDaEq5GDAllPv35dJZAsASCnPP8oCBo87UjCSK0Bq7zPRkTrZ1e0jFRdOW8qqTOiT4QUe/LhQGBAaG4RmW0CEFqe8fnvnkRzA0/LKpBNHHCgOfffiYKJ9zJ4UwlAAATpUlEQVSEFphy3YlWQSg3Qhi/zwdLgCWQhgRM90B3137RDb5mBo+PgdVLpJ9CsX5DEr8D+2e8vxcEMGa7Rk+xbF0uAwIDQigg2Ju21SpMVe/VIphQ4NJOiIiEME2CDyRY/TgzPPqBigtS4pgXzItjJ8U09gXukyVgSEBCg+DXLpGpwa/OQgLNgRh2TDgwzpEI6WyAdcGAwIAQDxAcm7V9ole9730Tp+89G3oiSDB/W0pTEAQLQaDjvFkZFBrg0cVDbBgJhMX9+0U2RDotumHDnQDJsaV7HRKdkGJ+55sV0WXycEg5QLMhlRwpDJDqeCIZEBgQKgcIHngIMzUYmokIn4SSzdyTGCmoZkSEQ2JJfgeGgzp+RPHQmkYCAaBQ8rYdkDzJq12wshY4XvFdmgpXjQVZOPBs5JHaA5+Nv1nMC3RpDAgMCJGAYGzmHut80Cbs54vgBIeS3AUBkGASREluAzFaSVAI0hZEaAhCAaJpntZ8ISyB6kggcMO0fj4MCEo2bL+QyNLPKgoHHrhwSS1KA+Js3EAZFK1hMyAwILifEkmiGTyaA6c5wYUVAZEGJZoEF1B44MQ1Pn8/A2mYCXs+spmhOrsH/0pzS0BmU4zIsBisYfDPn+ByRixXc+DVEASZGcxZDIUhGVnU2WpgQGBAkAKEWFoEDzCEQoLZ1oYEP22DU2kQqsmI0HL4aUK8NySDQZ09ong4TSGBiM1RzqkvIKGSK4uiQ1qezdzOkuinEYjrd+AFhyhAaEA4oEtiQGBASA4IXs1BUk1CGCR4tAnOwYbnNvAJWAzZ/Nms0BTbEF9EA0gg3lu2JxogMGdCMBiIvdyKK/DTAMjAQZgmIQoOAmCiAaaKAYEm6dJ7xoeH85jTCBNWlTHG3UiDciMk0CRYygJf3wPX73i4JijFst0sJMMBaw2qsqz4R1gCQgKhb9PR4YEuwHA299n8fbUGfhqEoGRI1pS1mGnBumzWIDAglD61ygGECK2CjLnBgATPO30ohBQvIVATEHhNnBqJty2WQHUlEJJdXzrSIVxj4NIaBL39J9EcBABOPK1IdaVdzq8xIDAgxAIEa/MuOSkitDDScdELFnbSpWSgYI2PQxrLeTzwuSyBlCUgCwTGju8+AjMuBmRdLFdzkAQOIjUmKcu3zO4ZEBgQ/JdQXC1ChOZA/EhUCGQAJFhQ4qt9sEnAz+cg4NI4oXKZjw0+nSVQOQmEv32HQIFn87WrMVqnRPgblDBHjHBL56iaVXtA18iAwIAQGxCsDdv3xEpoEiJAwfh98wgCmcDPK/dg455YAiyBCkkgyOoQkZ7Zzp4clH3RCRGevnwLMPnBhQdEpOEg5LwKSS31bhgQGBASAUJZkOABgFiaAdv04Bx2gCFBxvlQpk3qtyH/AEugBSUQFfonkYTIN9Ohd2OOAwZBm7rEWHxnMOoa63zaGRAYEIKXqMTmKe0U6NdXkMnBq0Hw+zvgMy3KfCBxTXV+z/LwWALNJ4GQjbTEdBD0lu+3uacEB+Kn/AoyeWeGAaHstRri0lp231IdcJhjgJgkN1NpSJDY+Es8CaJMFi5Fgn9EQklEhNSqMBtJyiBOl9yWJdD0Eki4MbrCEv2EFJF10T4lDAxktQSh0CKxbSWUQT2tDdYgsAYhfD1KbJCxIwUkNv1IULBGHTY+ibELZimtNFFP9yiPhSXQNBII1AbIwkCY9sBn4/fdxqOcEYMAwvxtKc1BRB+NMqEMCAwIZQOCtckGdhRhXrDP87QLzFAQ1zFRQsvQKDcsj5Ml0LQSiHrjjnBYdMpFCgxkNQmOjlsJDuiyGRAYEKKfNzHexGNBgiCL6PoJBoAEHFFji/o++uq5BUuAJVBtCSSFBZ90CWLoMloD1hyUzDIDAgNC9K0fc5ONbXLwAwVrVKH5GKKHXgIgEqdwE5YAS6DGEogChCAQsIYdQ9vgCxCey281zYF1+QwIDAjyT4IYoBBZ/CiJmSDi98tKmhzj2uQFxi1ZAiwBlwQkNv4giUW6BYb1HRcYzEFIg0GE9qFRVwEDAgNCvLUbYyNNDAlhGgUJzYL3gsoCh3jS4dYsAZZAmRKIBAFv/0nAQGJDjwUHEv2VKZaanM6AwIAQb+HFAAR7Ly83N4Hsb8q2C7lihol4y4FbswRkJRB74/frWFYDEdWu3BDGOJAiK6A6bMeAwIAQf1km2IgjtQkyWgPZNgm0DPGFwGewBFgCqUogapOPu0lL9Bdba9CkmgNLtAwIDAjJ7vG0ICEOBCQYQ+DFVrKvZBLls1gCzS8BiU1aWgiyfUm2YzgolTwBwmJ95uKbntt/h/S8VLhhRTRP5Yzp0nvHjw3PYm45fbTkuQk3VSltglOgSX4nyTktOYl80SyBOpaA5OZecgUxzksEBpRmueY7V/rzJgABhQtuek7vr9L/Nf9fqLmYL713/PDwLBbUSgAN/7tlbsaxgcESWJm/2/By5wtgCbSyBGJAgFNMyYDA0UPC323EqWrPKJgzO/Ws7140795ajb/2gHDP2IHhvLKsVgJoit+t0GadGBa8QqzQeJpibvgiWAKNKoEKbcZlQ4ElvwqNp1GmoyenAieOn/OTFy67r1Zjrj0g3DWybVjLbqiVAJrqdyu4MVcMFsIEXMHxNtU88sWwBNKUQBU22opBAcmhCuNNU9xJ++5vU7FnYPDkh65atzVpH+WeV3NAePFdI789rmXPK/dC+HyHBFLaeKsCDTyRLAGWQENJoKIw4LzyFgUDSwT9OQXbDx1cs+XydXtrtSBqDggvuvPoj0eVjhdwDHxKSyAlWLBGy9CQ0rxxtyyBOpVAakDQwtoCv6nuU2axd2Bk3sOvWH28Vkuh5oDwrB8NXN/Z2/+6yQIjQqqLIGVQkBk7w4SMlLgNS6C6Ekh1w5e5lBbXFPiJiDbmbm16svvY3N6br1IKMmJMo03NAeGsm3f9y8rFiz94Ip/G5XGfUhKoA3iQGic3YgmwBBpbAgwDUvNHIY6YHNt65/MXnSx1QkqNag8I39l52fJFC743hmxKl8jdxpYAA0NskfEJLAGWgEcCDAOJl0RvTsHQoSO33nf5qpcm7qQCJ9YcEE753q7Vy7p79ujtPcjzxlSBKU2xC56fFIXLXbMEGlACDAGpTFqPUsC+I4f+9eEr138wlR+Q7LTmgEDjPPe2A4ML5s1dMjbLfgiS89a4zRgyGnfueOTNJwHe4OtuTsm6kJ2ZxKGRsQsfumrNL2s5wLoAhHO+v+978/v7LptgM0Mt1wL/NkuAJcASYAnUWAI9WQVHjx6dUGex4LdXrZys5XDqAhCe8v091/Z2dn1O7ezBrMZahFouCP5tlgBLgCXAEqiNBGhD7tBncXTkxO33XbbqktqMovirdQEIZ313z5N72nK/7Omd0z+p18WQaj0v/PssAZYAS4Al0GISaFeB6YkxjE1O/N39l6/9dK0vvy5249Nv27W4U89+va+r+3lo68CsVmux8O+zBFgCLAGWAEugehKgzbgdBZw4ceLY5OTkRQ++fMMD1ft1/1+qC0BY/5Pt7b0TbW/q6Wj/z/aubnUGaq3lwr/PEmAJsARYAiyBqkmgTQUKUxMYGR+/RS/MvumBqzYcrtqPB/xQXQACje1J397x9Gwu+9V5/XM25TNtyLMrQq3XBv8+S4AlwBJgCVRBArQR51DA5OhoYXx65vX9C9fceNdzlZqnD6wbQDht8755Wcx+oL+r6y051iJUYUnyT7AEWAIsAZZAPUggpwDK7CSOjIz9Jq9ob37kinUP1cO46gYQhBbh5t0vhoJPL+6fs2Y2085ahHpYITwGlgBLgCXAEkhNArQJd6KA4yMjk1NTsx/Nnuj45J/etGwitR+M0XFdAcLZNw0syGenP9GRy14zf25/27imgi0NMWaTm7IEWAIsAZZAQ0mgQwVmJsb042MTf1A07a1/vvqkP9bLBdQVIJBQzvrOrkv0jPLF/s6Odd29fRivWR2repkiHgdLgCXAEmAJNKME2lUFyswkDp8YHS4U8ImJ3tWf3PECZbperrXuAOFpm/d1jquFD6i6/vZ5vd1tbZ09mOBS0PWyXngcLAGWAEuAJVABCWQVRSRFOnR8RJvVCveoqv43D1y+bm8Fuq5YF3UHCHRlp21+dEkWXb/IZNQz5vf2AO2dmGZIqNikc0csAZYAS4AlUDsJUL2FHkXD0PHjmM7nR/WC+rKHX7b6Z1CUurKq1yUg0LSd8a0tZ2dyHb/NZTO5+X19mM22cRrm2q1n/mWWAEuAJcASqIAEaNPtzeg4OjyCiZkZKBo++ueXrf2nCnRd8S7qFhDoSs/cvPPtiqJ+pDOX65rT24NZNceRDRVfAtwhS4AlwBJgCVRDAiJiQdUwPjaK0amZgqbpt+fWrbn0T09RZqvx+3F/o64BgfwRJjD771DU13S1Zbt7u3tQyOTAVaHjTjO3ZwmwBFgCLIFaSoDMCpRKeWpiAiMTU5qua7/Vob7qoavW7K7luMJ+u64BgQZ+6uadq3Jq5kPQ9Ss6c7nO3u5uKG3tmGKfhHpdUzwulgBLgCXAEnBIIKsAbXoeE5MTODE5pesa/qgB7374yjX3QlHqtvpQ3QMC3q+rTz51x8makn0fgBe3ZTLtvV2d6OjqxkReR91Klm8PlgBLgCXAEmh5CXRmKdHBFEYnJjA+PaNDxwNQtPeNd2u373jBhroJafSbqPoHBBr1+3X1zFN3b1CgfhjQLlVVNdfT0Y6+nh5MIoO8VleOny1/Q7AAWAIsAZZAq0uANtfuDDBNWoOJScwUCrqi6w8rivqPx8f0X+15zdqpepdRYwACSVHXlfU371jQpWc/o6h4uSiNmc1ibm8PtFwbpgvgrIv1vtp4fCwBlgBLoAUk0KYq6EAew6NjpDWAputQdGzRCnjNpsya+26+SmmIFICNAwjmonrO+3+VPX7ymg8io18HKN1U46K/qwM93T2g1MxkcmB9QgvcgXyJLAGWAEugjiRAm6miUJSCjsLMFI6NjmO2IHakGUVXfqcje82DV608UEdDjhxKwwGCdUVnbd79MgDv0YFTKCFVVlUxr6cLmbZ2zOgqdEUBWR4YFiLXADdgCbAEWAIsgYQSoOgEqhqUgYZMIY8T4xMYn5mFAqWg6/qAouDb/WN4310NYFLwiqBhAeHKzXpmm7r3TOj6G6HrLwSU5VCg5jIqejs7kcnmgEwGUDOggAcOeki4+vk0lgBLgCXAEnBJgDQFOUWBomvQtTz0/Cwmp6YFGIhDx4gO5dcKcP3IuP7TRvA38JvihgUE62LOvmnrgny27UJAuRLQnwcF3fQdaRQ62nLIZrPIZrJQxf8y0BRFZGRkv0a+41kCLAGWAEtARgK0UWZVBRSuqBcKKIj/zaKQL2B6dgYz+YKlrS5A1/8ERd2sKJkf/PnyFTvrOYwx6tobHhDoAq/cvDmzFeeuUqCfqyi4RgcuAtBF34mJzWSQzahQFFX8O5fNIpPJQKVKWooKRVVNOSlskohaMfw9S4AlwBJoUgnQDqCA/r8OXScbtQatoEHTNMwW8pjNF8S/jb8LwvnQUBiIreNhRdNvUBTlzk5kt/72qpWTjS6mpgAEaxLI7LA1OzRfmZ06DYr+akB/ERRlgXOSFEUB2YxoEQiPEtOxxGjDgNDoC5rHzxJgCbAEkkrAtQNYPmw64QIF0pHm2evVphAE/EYDvpZVtf+bc0IZakRfgyB5NRUgeC/y3G9smT/V1f5CRVdeCeACKMgkXTh8HkuAJcASYAmwBMSrpI4tOnAzVHXzg4+s2oL31282xHJmrKkBwSmYp954tG8qd+Jpmqqfo0I5Q9ewHgrmKAqygJKBrqvCHsEHS4AlwBJgCbS6BEhXUFCAAnRlXIG+D4ryqKIU7p9SlN9suXzd3lYQUOtuie/X1dNO3d+P6el5mVy2L6PNtusZxXJGaIW552tkCbAEWAIsAa8E1KxOHoh5ZMYKsxPDart+9NGrTptpRUG1LiC04mzzNbMEWAIsAZYAS0BSAgwIkoLiZiwBlgBLgCXAEmglCTAgtNJs87WyBFgCLAGWAEtAUgIMCJKC4mYsAZYAS4AlwBJoJQkwILTSbPO1sgRYAiwBlgBLQFICDAiSguJmLAGWAEuAJcASaCUJMCC00mzztbIEWAIsAZYAS0BSAgwIkoLiZiwBlgBLgCXAEmglCTAgtNJs87WyBFgCLAGWAEtAUgIMCJKC4mYsAZYAS4AlwBJoJQkwILTSbPO1sgRYAiwBlgBLQFICDAiSguJmLAGWAEuAJcASaCUJMCC00mzztbIEWAIsAZYAS0BSAgwIkoLiZiwBlgBLgCXAEmglCTAgtNJs87WyBFgCLAGWAEtAUgIMCJKC4mYsAZYAS4AlwBJoJQkwILTSbPO1sgRYAiwBlgBLQFICDAiSguJmLAGWAEuAJcASaCUJMCC00mzztbIEWAIsAZYAS0BSAgwIkoLiZiwBlgBLgCXAEmglCTAgtNJs87WyBFgCLAGWAEtAUgIMCJKC4mYsAZYAS4AlwBJoJQkwILTSbPO1sgRYAiwBlgBLQFICDAiSguJmLAGWAEuAJcASaCUJMCC00mzztbIEWAIsAZYAS0BSAgwIkoLiZiwBlgBLgCXAEmglCTAgtNJs87WyBFgCLAGWAEtAUgIMCJKC4mYsAZYAS4AlwBJoJQkwILTSbPO1sgRYAiwBlgBLQFICDAiSguJmLAGWAEuAJcASaCUJ/H+jgqWKeR4uzQAAAABJRU5ErkJggg==;" parent="1" vertex="1">
          <mxGeometry x="315" y="520" width="50" height="50" as="geometry" />
        </mxCell>
        <mxCell id="pRWS1FV3pOWH-M-R4NUc-14" value="" style="edgeStyle=orthogonalEdgeStyle;rounded=0;orthogonalLoop=1;jettySize=auto;html=1;dashed=1;startArrow=classic;startFill=1;fillColor=#e51400;strokeColor=#FF0000;" parent="1" source="FH3NqwZfaj9H6SlRPo3W-12" edge="1">
          <mxGeometry relative="1" as="geometry">
            <mxPoint x="400" y="631" as="targetPoint" />
            <Array as="points">
              <mxPoint x="400" y="631" />
            </Array>
          </mxGeometry>
        </mxCell>
        <mxCell id="FH3NqwZfaj9H6SlRPo3W-12" value="MQTT broker component" style="rounded=1;whiteSpace=wrap;html=1;" parent="1" vertex="1">
          <mxGeometry x="360" y="700" width="80" height="40" as="geometry" />
        </mxCell>
        <mxCell id="pRWS1FV3pOWH-M-R4NUc-9" value="" style="edgeStyle=orthogonalEdgeStyle;rounded=0;orthogonalLoop=1;jettySize=auto;html=1;startArrow=classic;startFill=1;" parent="1" source="pRWS1FV3pOWH-M-R4NUc-2" target="FH3NqwZfaj9H6SlRPo3W-12" edge="1">
          <mxGeometry relative="1" as="geometry" />
        </mxCell>
        <mxCell id="pRWS1FV3pOWH-M-R4NUc-2" value="" style="rounded=0;whiteSpace=wrap;html=1;fillColor=#f5f5f5;strokeColor=#666666;fontColor=#333333;" parent="1" vertex="1">
          <mxGeometry x="80" y="840" width="640" height="120" as="geometry" />
        </mxCell>
        <mxCell id="pRWS1FV3pOWH-M-R4NUc-3" value="Lightbulb" style="sketch=0;outlineConnect=0;fontColor=#232F3E;gradientColor=none;strokeColor=#232F3E;fillColor=#ffffff;dashed=0;verticalLabelPosition=bottom;verticalAlign=top;align=center;html=1;fontSize=12;fontStyle=0;aspect=fixed;shape=mxgraph.aws4.resourceIcon;resIcon=mxgraph.aws4.lightbulb;" parent="1" vertex="1">
          <mxGeometry x="210.39" y="860" width="60" height="60" as="geometry" />
        </mxCell>
        <mxCell id="pRWS1FV3pOWH-M-R4NUc-4" value="Door Lock" style="sketch=0;outlineConnect=0;fontColor=#232F3E;gradientColor=none;strokeColor=#232F3E;fillColor=#ffffff;dashed=0;verticalLabelPosition=bottom;verticalAlign=top;align=center;html=1;fontSize=12;fontStyle=0;aspect=fixed;shape=mxgraph.aws4.resourceIcon;resIcon=mxgraph.aws4.door_lock;" parent="1" vertex="1">
          <mxGeometry x="290.39" y="860" width="60" height="60" as="geometry" />
        </mxCell>
        <mxCell id="pRWS1FV3pOWH-M-R4NUc-5" value="Coffee Pot" style="sketch=0;outlineConnect=0;fontColor=#232F3E;gradientColor=none;strokeColor=#232F3E;fillColor=#ffffff;dashed=0;verticalLabelPosition=bottom;verticalAlign=top;align=center;html=1;fontSize=12;fontStyle=0;aspect=fixed;shape=mxgraph.aws4.resourceIcon;resIcon=mxgraph.aws4.coffee_pot;" parent="1" vertex="1">
          <mxGeometry x="370.39" y="860" width="60" height="60" as="geometry" />
        </mxCell>
        <mxCell id="pRWS1FV3pOWH-M-R4NUc-6" value="Camera" style="sketch=0;outlineConnect=0;fontColor=#232F3E;gradientColor=none;strokeColor=#232F3E;fillColor=#ffffff;dashed=0;verticalLabelPosition=bottom;verticalAlign=top;align=center;html=1;fontSize=12;fontStyle=0;aspect=fixed;shape=mxgraph.aws4.resourceIcon;resIcon=mxgraph.aws4.camera;" parent="1" vertex="1">
          <mxGeometry x="449.62" y="860" width="60" height="60" as="geometry" />
        </mxCell>
        <mxCell id="pRWS1FV3pOWH-M-R4NUc-7" value="Thermostat" style="sketch=0;outlineConnect=0;fontColor=#232F3E;gradientColor=none;strokeColor=#232F3E;fillColor=#ffffff;dashed=0;verticalLabelPosition=bottom;verticalAlign=top;align=center;html=1;fontSize=12;fontStyle=0;aspect=fixed;shape=mxgraph.aws4.resourceIcon;resIcon=mxgraph.aws4.thermostat;" parent="1" vertex="1">
          <mxGeometry x="529.62" y="860" width="60" height="60" as="geometry" />
        </mxCell>
        <mxCell id="pRWS1FV3pOWH-M-R4NUc-11" value="" style="edgeStyle=orthogonalEdgeStyle;rounded=0;orthogonalLoop=1;jettySize=auto;html=1;exitX=0.5;exitY=0;exitDx=0;exitDy=0;startArrow=classic;startFill=1;" parent="1" source="VVOTs8hIAm1Yoa4DuNBe-1" target="dDbz6tNlugugnMeiO2d0-1" edge="1">
          <mxGeometry relative="1" as="geometry">
            <Array as="points">
              <mxPoint x="560" y="130" />
            </Array>
          </mxGeometry>
        </mxCell>
        <mxCell id="pRWS1FV3pOWH-M-R4NUc-10" value="Interprocess comms" style="rounded=1;whiteSpace=wrap;html=1;" parent="1" vertex="1">
          <mxGeometry x="520" y="700" width="80" height="40" as="geometry" />
        </mxCell>
        <mxCell id="pRWS1FV3pOWH-M-R4NUc-13" value="MQTT" style="text;html=1;strokeColor=none;fillColor=none;align=center;verticalAlign=middle;whiteSpace=wrap;rounded=0;" parent="1" vertex="1">
          <mxGeometry x="509.62" y="240" width="49.23" height="40" as="geometry" />
        </mxCell>
        <mxCell id="pRWS1FV3pOWH-M-R4NUc-15" value="&lt;font color=&quot;#ff0000&quot;&gt;Via local broker&lt;/font&gt;" style="text;html=1;strokeColor=none;fillColor=none;align=center;verticalAlign=middle;whiteSpace=wrap;rounded=0;" parent="1" vertex="1">
          <mxGeometry x="400" y="660" width="90" height="40" as="geometry" />
        </mxCell>
        <mxCell id="pRWS1FV3pOWH-M-R4NUc-18" value="Local Devices" style="text;html=1;strokeColor=none;fillColor=none;align=center;verticalAlign=middle;whiteSpace=wrap;rounded=0;" parent="1" vertex="1">
          <mxGeometry x="80" y="840" width="80" height="20" as="geometry" />
        </mxCell>
        <mxCell id="VVOTs8hIAm1Yoa4DuNBe-1" value="Greengrass nucleus" style="rounded=1;whiteSpace=wrap;html=1;strokeColor=#000000;" vertex="1" parent="1">
          <mxGeometry x="519.62" y="620" width="80" height="40" as="geometry" />
        </mxCell>
        <mxCell id="VVOTs8hIAm1Yoa4DuNBe-2" value="MQTT bridge component" style="rounded=1;whiteSpace=wrap;html=1;" vertex="1" parent="1">
          <mxGeometry x="440" y="700" width="80" height="40" as="geometry" />
        </mxCell>
        <mxCell id="VVOTs8hIAm1Yoa4DuNBe-3" value="Custom components" style="rounded=1;whiteSpace=wrap;html=1;" vertex="1" parent="1">
          <mxGeometry x="620" y="700" width="80" height="40" as="geometry" />
        </mxCell>
        <mxCell id="VVOTs8hIAm1Yoa4DuNBe-5" value="" style="endArrow=classic;html=1;rounded=0;exitX=0.5;exitY=1;exitDx=0;exitDy=0;entryX=0.5;entryY=0;entryDx=0;entryDy=0;startArrow=classic;startFill=1;" edge="1" parent="1" source="VVOTs8hIAm1Yoa4DuNBe-1" target="pRWS1FV3pOWH-M-R4NUc-10">
          <mxGeometry width="50" height="50" relative="1" as="geometry">
            <mxPoint x="770" y="510" as="sourcePoint" />
            <mxPoint x="820" y="460" as="targetPoint" />
          </mxGeometry>
        </mxCell>
        <mxCell id="VVOTs8hIAm1Yoa4DuNBe-6" value="" style="endArrow=classic;startArrow=classic;html=1;rounded=0;exitX=1;exitY=0.5;exitDx=0;exitDy=0;entryX=0;entryY=0.5;entryDx=0;entryDy=0;" edge="1" parent="1" source="pRWS1FV3pOWH-M-R4NUc-10" target="VVOTs8hIAm1Yoa4DuNBe-3">
          <mxGeometry width="50" height="50" relative="1" as="geometry">
            <mxPoint x="770" y="510" as="sourcePoint" />
            <mxPoint x="820" y="460" as="targetPoint" />
          </mxGeometry>
        </mxCell>
      </root>
    </mxGraphModel>
  </diagram>
</mxfile>
